<?xml version="1.0" encoding="UTF-8" standalone="no"?>
<svg
   xmlns:dc="http://purl.org/dc/elements/1.1/"
   xmlns:cc="http://creativecommons.org/ns#"
   xmlns:rdf="http://www.w3.org/1999/02/22-rdf-syntax-ns#"
   xmlns:svg="http://www.w3.org/2000/svg"
   xmlns="http://www.w3.org/2000/svg"
   xmlns:sodipodi="http://sodipodi.sourceforge.net/DTD/sodipodi-0.dtd"
   xmlns:inkscape="http://www.inkscape.org/namespaces/inkscape"
   version="1.1"
   id="Layer_1"
   x="0px"
   y="0px"
   viewBox="0 0 496.2 496.2"
   style="enable-background:new 0 0 496.2 496.2;"
   xml:space="preserve"
   sodipodi:docname="8a.svg"
   inkscape:version="1.0 (1.0+r73+1)"><metadata
   id="metadata547"><rdf:RDF><cc:Work
       rdf:about=""><dc:format>image/svg+xml</dc:format><dc:type
         rdf:resource="http://purl.org/dc/dcmitype/StillImage" /><dc:title></dc:title></cc:Work></rdf:RDF></metadata><defs
   id="defs545" /><sodipodi:namedview
   inkscape:document-rotation="0"
   pagecolor="#ffffff"
   bordercolor="#666666"
   borderopacity="1"
   objecttolerance="10"
   gridtolerance="10"
   guidetolerance="10"
   inkscape:pageopacity="0"
   inkscape:pageshadow="2"
   inkscape:window-width="2075"
   inkscape:window-height="1379"
   id="namedview543"
   showgrid="false"
   inkscape:zoom="2.3115679"
   inkscape:cx="248.10001"
   inkscape:cy="248.10001"
   inkscape:window-x="60"
   inkscape:window-y="48"
   inkscape:window-maximized="0"
   inkscape:current-layer="Layer_1" />
<path
   style="fill:#ffefd6;fill-opacity:0"
   d="M0,248.1C0,111.1,111.1,0,248.1,0s248.1,111.1,248.1,248.1S385.1,496.2,248.1,496.2S0,385.1,0,248.1z  "
   id="path464" />
<path
   style="fill:#e2a379"
   d="m 105.75147,180.3 c 0.8,-3.7 25.7,5.4 25.7,5.4 34.4,5.2 50,11.5 50,11.5 20.7,2.2 58.1,11.3 65.4,14.3 7.3,3 3,18.4 -4.9,17.3 -7.9,-1.1 -14.7,-3 -22.4,-4.7 -7.7,-1.7 -34.1,-12.1 -40.7,-14.3 -0.9,-0.3 -49.1,-15.8 -49.1,-15.8 0,0 -2,-0.4 -5.5,0 -4.8,0.7 -19.3,-10 -18.5,-13.7 z"
   id="path466" />
<g
   transform="matrix(-1,0,0,1,536.25147,0)"
   id="g472">
	<path
   style="fill:#3d3c3c"
   d="m 217.1,236.4 c -2.1,-1.1 -8.1,-8 -18.1,-10.5 -6,-1.5 -13.6,-2.1 -20.5,-2.3 -9.8,-0.3 -10.2,39.1 -3.6,42 10.7,4.7 32.3,6 38.9,6.1 4.5,0 10.7,-20.4 10.7,-20.4 0,0 -5.3,-13.8 -7.4,-14.9 z"
   id="path468" />
	<path
   style="fill:#3d3c3c"
   d="m 130,200.4 c 0,0 -22.1,-6.5 -24.1,4.2 -2.1,11.1 45,45.8 55.2,53 10.3,7.1 14.6,9.5 38.5,16.7 3.5,-5.5 1.8,-7.4 1.3,-25.5 C 200.4,226.3 130,200.4 130,200.4 Z"
   id="path470" />
</g>
<path
   style="fill:#e2a379"
   d="m 345.95147,94 c -3,2.8 6.9,17.2 7.2,20.4 0.2,1.6 -1.1,3.9 0.5,7 2.1,4.1 6.5,4.6 7.2,6 3.4,7.6 12.1,23.3 16.4,32.5 1,2.1 2.1,4.3 3.2,6.4 4.7,8.8 19.6,-6.2 17.6,-9.2 -8,-12 -27.8,-34.5 -31.1,-38.5 0,0 -8.1,-13.8 -10.3,-16.8 -1.4,-2 -7.7,-10.6 -10.7,-7.8 z"
   id="path474" />
<path
   style="fill:#3d3c3c"
   d="m 398.75147,196.7 c -4,-4.5 -13.7,-21.7 -18.4,-30.5 3.4,-0.5 15.4,-7 17.6,-9.2 2,3 34.4,38.5 32.5,49.2 -1.3,7.8 -12.4,4.5 -21.5,-0.3 0.1,0 -6.2,-4.7 -10.2,-9.2 z"
   id="path476" />
<path
   style="fill:#f4b382"
   d="m 324.75147,422.6 c 4,-0.9 19.1,0 20.6,-0.1 3.6,-0.1 7.1,-2.1 6.4,-5.5 -0.5,-2.6 -1.8,-4.9 -1.6,-6.5 0.8,-8.3 3.2,-33.2 4,-43.2 0.2,-2.3 0.3,-4.7 0.4,-7.2 0.3,-9.9 -20.1,-4.3 -19.8,-0.7 1,14.4 4.7,48.4 5.7,53.6 0,0 -24.7,1.2 -24.3,4.9 0.2,2.3 4.6,5.7 8.6,4.7 z"
   id="path478" />
<path
   style="fill:#3d3c3c"
   d="m 351.75147,327.7 c 1.4,11.5 3.1,22.4 2.8,32.4 -3.3,-1.2 -16.8,-1.6 -19.8,-0.7 -0.2,-3.6 -4.8,-31.3 -4.8,-31.3 -1.1,-8.8 -10,-60.4 -7.7,-76.5 0.4,-4.1 1.2,-7.8 2,-10.8 1.6,-5.9 34.1,-2.5 35.4,5.6 -1.1,17.6 -3.8,44.6 -5.3,57.6 -1.1,9 -2.6,23.7 -2.6,23.7 z"
   id="path480" />
<path
   style="fill:#b3233b"
   d="m 242.75147,236.2 c -4.2,-11.1 -0.9,-18.8 2.3,-33.9 0.6,-1.7 7,-7.1 10.9,-7.7 4.4,-0.7 9.1,-0.2 12.2,3.1 2.9,2.4 7.3,8.2 17.2,29 2.8,5.8 23.4,12.2 33.8,9.6 0,0 7.6,8.3 7.6,19.5 0,8.3 -4.3,15.8 -4.3,15.8 -44.1,-0.7 -60.4,-8.8 -71,-27.5 0,0.1 -6.7,-2.5 -8.7,-7.9 z"
   id="path482" />
<path
   style="fill:#e2a379"
   d="m 243.05147,203 c 0,0 -2.2,-8.6 -6.9,-15.2 l 11,-7.8 c 1.9,8.2 11.7,14.5 11.7,14.5 -7.4,19.3 -14.4,15.1 -15.1,14.4 z"
   id="path484" />
<path
   style="fill:#f4b382"
   d="m 225.35147,169.5 c -3.5,-5.3 -0.9,-10.3 1.1,-13.2 6,-8.8 12,-9.3 19.7,-8.9 10.1,0.6 12.4,27.6 11.2,32 -3,11.6 -19.5,15.2 -26.1,15 -7.3,-0.2 -5.3,-2.6 -4.9,-5.5 0,-0.1 -0.3,-0.6 -0.3,-0.6 0,-1 0.2,-2.4 -0.4,-3.7 0,0 0.3,-0.9 0.4,-1.4 0,-0.3 0,-0.5 -0.3,-0.7 -1,-0.4 -2,-0.8 -2.4,-1.3 -1.4,-1.4 3.6,-9.2 2,-11.7 z"
   id="path486" />
<path
   style="fill:#d6876b"
   d="m 229.85147,186.2 c 0,0 -0.7,0.4 -4,0.2 -0.4,-0.2 -1.1,-0.7 -0.4,-1.6 0.4,-0.7 2,0.9 4.4,1.4 z"
   id="path488" />
<path
   style="fill:#cc785e"
   d="m 229.85147,186.2 c 0,0 -0.8,1.6 -3.9,2.2 -0.4,-0.1 -0.7,-0.5 -0.8,-0.6 -0.3,-1 0.6,-1.4 0.6,-1.4 3.3,0.1 4.1,-0.2 4.1,-0.2 z"
   id="path490" />
<path
   style="fill:#602f0f"
   d="m 246.85147,145.8 c 12.4,0.8 27.8,19.6 9.6,39.6 -1.2,1.3 -3.9,2.8 -7.6,-0.3 -2.6,-2.2 -4.3,-5 -4.3,-5 -0.5,-0.8 -1,-1.8 -1.6,-2.8 -0.6,-1.1 0.6,-7.2 -0.7,-7.4 -12,-2.6 -16.8,-9.4 -16.6,-12.6 2.1,-7.7 8,-12.3 21.2,-11.5 z"
   id="path492" />
<path
   style="fill:#f4b382"
   d="m 246.95147,176.7 c -2.2,5.4 -4.5,5.5 -7.7,5 l 2.4,-8.4 1.9,-3.3 c 3.1,0.4 5.6,1.3 3.4,6.7 z"
   id="path494" />
<path
   style="fill:#4c230c"
   d="m 265.05147,165.8 c 3,-2.3 2.1,-8.3 -2.2,-13.5 -4.2,-5.2 -10.1,-7.5 -13.2,-5.2 -3,2.3 -1.6,6.9 2.6,12.1 4.3,5.1 9.8,8.9 12.8,6.6 z"
   id="path496" />
<g
   transform="matrix(-1,0,0,1,536.25147,0)"
   id="g502">
	<path
   style="fill:#602f0f"
   d="m 295.2,171.1 c -0.2,-1 -0.3,-1.9 -0.3,-2.6 0,-1.1 0.1,-1.7 0.1,-1.7 l -3.5,1.5 c 0,0.5 0.1,1.1 0.1,1.6 0,0 0.4,-0.1 1,-0.4 h -0.1 c 0.5,0.8 1.2,2 1.9,3.8 0,0 1.5,0.9 0.8,-2.2 z"
   id="path498" />
	<path
   style="fill:#602f0f"
   d="m 269.1,165.6 c -3.2,-2.4 -2,-9 2.6,-14.6 4.6,-5.7 11,-8.3 14.2,-5.9 3.2,2.4 1.6,7.4 -3.1,13.1 -4.6,5.6 -10.5,9.8 -13.7,7.4 z"
   id="path500" />
</g>
<path
   style="fill:#4c230c"
   d="m 265.75147,154.5 c 0.4,-0.3 -0.5,-1.9 -1.9,-3.6 -1.4,-1.7 -2.9,-2.9 -3.2,-2.6 -0.4,0.3 0.4,1.6 1.9,3.3 1.4,1.6 2.9,3.2 3.2,2.9 z"
   id="path504" />
<g
   transform="matrix(-1,0,0,1,536.25147,0)"
   id="g510">
	<path
   style="fill:#f4b382"
   d="m 153.5,116 c -2.5,2.8 10.4,12.1 13.2,16.1 l 5.9,1.9 c 23.9,25.2 37.5,34.5 37.5,34.5 13.6,15.7 41.6,40.3 48.3,44.6 4,2.7 17,-13.8 12.8,-17.8 -7.1,-5.5 -10.2,-6.1 -16.6,-11.1 -5.8,-5.3 -30,-21 -35.6,-25.1 -0.8,-0.6 -40.5,-31.4 -40.5,-31.4 0,0 -1.4,-1.4 -3.1,-4.5 -2.3,-4.3 -7.6,-8.7 -11.5,-10 -3.4,-1 -7.9,0.1 -10.4,2.8 z"
   id="path506" />
	<path
   style="fill:#f4b382"
   d="m 164.2,127.6 c 0,0 -3.4,-3.7 -5.5,-2.1 -1.8,1.3 -2.3,2 8,6.6 0,0 0.9,-1.2 -2.5,-4.5 z"
   id="path508" />
</g>
<g
   id="g512">
</g>
<g
   id="g514">
</g>
<g
   id="g516">
</g>
<g
   id="g518">
</g>
<g
   id="g520">
</g>
<g
   id="g522">
</g>
<g
   id="g524">
</g>
<g
   id="g526">
</g>
<g
   id="g528">
</g>
<g
   id="g530">
</g>
<g
   id="g532">
</g>
<g
   id="g534">
</g>
<g
   id="g536">
</g>
<g
   id="g538">
</g>
<g
   id="g540">
</g>
</svg>
