<?xml version="1.0" encoding="UTF-8" standalone="no"?>
<svg
   xmlns:dc="http://purl.org/dc/elements/1.1/"
   xmlns:cc="http://creativecommons.org/ns#"
   xmlns:rdf="http://www.w3.org/1999/02/22-rdf-syntax-ns#"
   xmlns:svg="http://www.w3.org/2000/svg"
   xmlns="http://www.w3.org/2000/svg"
   xmlns:sodipodi="http://sodipodi.sourceforge.net/DTD/sodipodi-0.dtd"
   xmlns:inkscape="http://www.inkscape.org/namespaces/inkscape"
   version="1.1"
   id="Layer_1"
   x="0px"
   y="0px"
   viewBox="0 0 496.2 496.2"
   style="enable-background:new 0 0 496.2 496.2;"
   xml:space="preserve"
   sodipodi:docname="9a.svg"
   inkscape:version="1.0 (1.0+r73+1)"><metadata
   id="metadata628"><rdf:RDF><cc:Work
       rdf:about=""><dc:format>image/svg+xml</dc:format><dc:type
         rdf:resource="http://purl.org/dc/dcmitype/StillImage" /><dc:title></dc:title></cc:Work></rdf:RDF></metadata><defs
   id="defs626" /><sodipodi:namedview
   inkscape:document-rotation="0"
   pagecolor="#ffffff"
   bordercolor="#666666"
   borderopacity="1"
   objecttolerance="10"
   gridtolerance="10"
   guidetolerance="10"
   inkscape:pageopacity="0"
   inkscape:pageshadow="2"
   inkscape:window-width="2352"
   inkscape:window-height="1271"
   id="namedview624"
   showgrid="false"
   inkscape:zoom="2.3115679"
   inkscape:cx="248.10001"
   inkscape:cy="248.10001"
   inkscape:window-x="60"
   inkscape:window-y="48"
   inkscape:window-maximized="0"
   inkscape:current-layer="Layer_1" />
<path
   style="fill:#ffefd6;fill-opacity:0"
   d="M0,248.1C0,111.1,111.1,0,248.1,0s248.1,111.1,248.1,248.1S385.1,496.2,248.1,496.2S0,385.1,0,248.1z  "
   id="path549" />
<g
   transform="matrix(-1,0,0,1,491.17463,0)"
   id="g557">
	<path
   style="fill:#f4b382"
   d="m 333.5,82.4 c -3.7,-0.2 -2.8,15.7 -4.1,20.4 l 2.2,5.8 c -4.4,34.5 -3,50.8 -3,50.8 -3.6,20.5 -4.8,57.7 -3.9,65.6 0.4,4.8 21.4,4.4 21.8,-1.4 -0.3,-9 -1.8,-11.8 -2,-19.8 0.4,-7.9 -2.8,-36.5 -3.1,-43.4 0,-1 -1.4,-51.2 -1.4,-51.2 0,0 0.2,-2 1.5,-5.3 1.9,-4.5 1.9,-11.4 0.4,-15.3 -1.1,-3.2 -4.7,-5.9 -8.4,-6.2 z"
   id="path551" />
	<path
   style="fill:#f4b382"
   d="m 331.3,98.1 c 0,0 0.7,-5 -1.9,-5.6 -2.2,-0.6 -3,-0.5 0,10.4 0,-0.1 1.5,-0.2 1.9,-4.8 z"
   id="path553" />
	<path
   style="fill:#f4b382"
   d="m 357.9,376.5 c -4.2,-2.6 -15.8,-3.9 -15.6,-6.5 1.5,-20.8 7.5,-52 7.5,-52 1.5,-20.7 9.6,-51.7 9.6,-59.3 -1.7,-7.7 -16.6,-15.4 -16.9,-7.4 -1,9.3 -2.2,13.7 -3.2,23.3 -1.5,11.9 -3.3,36.9 -2.3,43.8 0.1,0.9 -3,52.7 -2.2,55.8 0.9,3.5 3.2,2.7 10.2,3.5 5.2,0.7 16.8,1.2 12.9,-1.2 z"
   id="path555" />
</g>
<path
   style="fill:#3d3c3c"
   d="m 240.67463,248.1 14.3,6 c 0,0 1.7,24.3 -1.2,30.9 -2.9,6.6 -16.8,21.5 -16.8,21.5 l -19,-7.2 z"
   id="path559" />
<path
   style="fill:#b3233b"
   d="m 158.17463,271.1 c -3.9,-1.3 -5.5,-2.3 -9.4,-4.1 -7.9,-3.7 -17.1,-8.2 -17.1,-8.2 1,-4.5 2.3,-8.9 3.5,-12.3 l 4.2,-11.8 c 1.2,-3.4 2.9,-7.6 5,-11.7 0,0 21.2,-4.7 34.1,-0.3 13.1,4.4 48.4,21.9 62.3,25.5 l -11.5,26 v 0 l -11.2,25.3 c -21.3,-18.2 -35.6,-25.6 -48.4,-27.1 -4.4,-0.5 -8.5,-0.3 -11.5,-1.3 z"
   id="path561" />
<path
   style="fill:#f4b382"
   d="m 408.97463,353.9 c -0.6,4.2 -2.8,8.3 -4.3,8.4 -2.9,0.4 -8.2,-6 -12,-6.8 -2.4,-0.5 -8.4,-4.9 -9.8,-5.6 -7.6,-3.5 -22.7,-9.2 -31.8,-13.5 -2.1,-1 -4.2,-2.1 -6.4,-3.3 -8.8,-4.7 6.4,-19.5 9.4,-17.5 12,8.1 31.9,23.7 35.9,27.1 0,0 10.4,3.3 13.9,4.5 2.1,0.8 5.8,1.8 5.1,6.7 z"
   id="path563" />
<path
   style="fill:#3d3c3c"
   d="m 317.47463,315.4 c 9.2,7 18.3,13 27.1,17.8 0.6,-3.4 7.1,-15.3 9.4,-17.5 -3,-2 -5.4,-3.6 -7,-4.6 -7.7,-4.7 -19.9,-11.5 -19.9,-11.5 -6.7,-4.5 -52.7,-37 -63.9,-42 -11.2,-5 -19.1,-7.7 -19.1,-7.8 l -6.4,12 c 5.7,6.2 -0.7,14 5.7,19.1 15.8,7.9 45.3,21.6 52.8,24.7 7.4,3.2 21.3,9.8 21.3,9.8 z"
   id="path565" />
<path
   style="fill:#f4b382"
   d="m 398.77463,373.7 c 3,-2.9 5.1,-7.1 4.3,-8.4 -1.4,-2.6 -9.6,-3.2 -12.5,-5.8 -1.8,-1.7 -8.9,-4 -10.3,-4.8 -7.3,-4.1 -20.7,-13.1 -29.5,-18 -2,-1.1 -4.2,-2.2 -6.4,-3.3 -8.9,-4.4 -12.2,16.5 -8.8,17.8 13.5,5 37.8,12.2 42.9,13.4 0,0 8.7,6.5 11.8,8.7 2,1.4 4.9,3.9 8.5,0.4 z"
   id="path567" />
<path
   style="fill:#3d3c3c"
   d="m 314.17463,321.7 c 11.1,3.4 21.3,7.3 30.2,11.7 -2.5,2.5 -8.4,14.7 -8.8,17.8 -3.4,-1.2 -6.1,-2.3 -7.8,-3 -8.3,-3.5 -20.9,-9.5 -20.9,-9.5 -7.6,-2.8 -60.7,-21.3 -71.3,-27.5 -10.6,-6.2 -17.3,-11.7 -17.3,-11.7 l 5.9,-11.6 c 8.4,1 11,-8.7 18.9,-6.5 15.6,8.3 43.9,24.3 50.8,28.6 6.9,4.2 20.3,11.7 20.3,11.7 z"
   id="path569" />
<path
   style="fill:#e2a379"
   d="m 123.97463,243 5.5,-16 c 6.7,5.1 10.9,3.9 10.9,3.9 0,0 4.8,2.2 2.3,9.5 -2.5,7.3 -7.6,6.1 -7.6,6.1 0,0 -2.7,-3.5 -11.1,-3.5 z"
   id="path571" />
<path
   style="fill:#f4b382"
   d="m 107.07463,214.7 c -5.4,-3.5 -10.299999,-0.7 -13.099999,1.3 -8.7,6.1 -9.1,12.1 -8.6,19.8 0.8,10.1 27.799999,11.9 32.199999,10.7 11.5,-3.2 14.9,-19.7 14.5,-26.3 -0.3,-7.3 -2.7,-5.3 -5.6,-4.8 -0.1,0 -0.6,-0.3 -0.6,-0.3 -1,0.1 -2.4,0.2 -3.7,-0.3 0,0 -0.9,0.3 -1.4,0.4 -0.3,0 -0.5,0 -0.7,-0.3 -0.5,-1 -0.9,-2 -1.3,-2.4 -1.5,-1.3 -9.3,3.8 -11.7,2.2 z"
   id="path573" />
<path
   style="fill:#d6876b"
   d="m 123.77463,218.9 c 0,0 0.4,-0.7 0.1,-4 -0.2,-0.4 -0.7,-1.1 -1.6,-0.4 -0.6,0.5 1,2.1 1.5,4.4 z"
   id="path575" />
<path
   style="fill:#cc785e"
   d="m 123.77463,218.9 c 0,0 1.6,-0.8 2.2,-3.9 -0.1,-0.4 -0.5,-0.7 -0.7,-0.8 -1,-0.3 -1.4,0.7 -1.4,0.7 0.2,3.3 -0.1,4 -0.1,4 z"
   id="path577" />
<path
   style="fill:#602f0f"
   d="m 83.674631,236.6 c 0.9,12.4 19.999999,27.5 39.699999,9 1.3,-1.2 2.8,-3.9 -0.4,-7.6 -2.2,-2.6 -5.1,-4.2 -5.1,-4.2 -0.9,-0.5 -1.8,-1 -2.8,-1.5 -1.1,-0.6 -7.1,0.7 -7.4,-0.6 -2.8,-12 -9.599999,-16.6 -12.899999,-16.4 -7.6,2.1 -12.1,8.1 -11.1,21.3 z"
   id="path579" />
<path
   style="fill:#f4b382"
   d="m 114.47463,236.2 c 5.3,-2.3 5.4,-4.6 4.9,-7.8 l -8.4,2.5 -3.3,1.9 c 0.6,3.2 1.5,5.7 6.8,3.4 z"
   id="path581" />
<path
   style="fill:#4c230c"
   d="m 103.97463,254.5 c -2.2,3.1 -8.299999,2.2 -13.599999,-2 -5.2,-4.2 -7.7,-10 -5.4,-13.1 2.2,-3.1 6.9,-1.7 12.1,2.4 5.299999,4.2 9.099999,9.6 6.899999,12.7 z"
   id="path583" />
<g
   transform="matrix(-1,0,0,1,491.17463,0)"
   id="g589">
	<path
   style="fill:#602f0f"
   d="m 380.1,231.1 c 1.8,0.7 3,1.4 3.7,2 V 233 c -0.3,0.7 -0.4,1 -0.4,1 0.5,0 1.1,0.1 1.6,0.1 l 1.6,-3.5 c 0,0 -0.7,0.1 -1.7,0.1 -0.7,0 -1.6,-0.1 -2.6,-0.4 -3.1,-0.6 -2.2,0.8 -2.2,0.8 z"
   id="path585" />
	<path
   style="fill:#602f0f"
   d="m 387.4,256.6 c 2.4,3.2 8.9,2.2 14.7,-2.4 5.7,-4.6 8.5,-10.9 6.1,-14.1 -2.4,-3.2 -7.4,-1.7 -13.1,2.9 -5.8,4.5 -10.1,10.3 -7.7,13.6 z"
   id="path587" />
</g>
<path
   style="fill:#4c230c"
   d="m 92.674631,255.4 c -0.3,0.4 -1.9,-0.5 -3.6,-1.9 -1.8,-1.4 -3,-2.8 -2.7,-3.2 0.3,-0.4 1.6,0.4 3.3,1.8 1.7,1.4 3.2,2.9 3,3.3 z"
   id="path591" />
<g
   id="g593">
</g>
<g
   id="g595">
</g>
<g
   id="g597">
</g>
<g
   id="g599">
</g>
<g
   id="g601">
</g>
<g
   id="g603">
</g>
<g
   id="g605">
</g>
<g
   id="g607">
</g>
<g
   id="g609">
</g>
<g
   id="g611">
</g>
<g
   id="g613">
</g>
<g
   id="g615">
</g>
<g
   id="g617">
</g>
<g
   id="g619">
</g>
<g
   id="g621">
</g>
</svg>
