<?xml version="1.0" encoding="UTF-8" standalone="no"?>
<svg
   xmlns:dc="http://purl.org/dc/elements/1.1/"
   xmlns:cc="http://creativecommons.org/ns#"
   xmlns:rdf="http://www.w3.org/1999/02/22-rdf-syntax-ns#"
   xmlns:svg="http://www.w3.org/2000/svg"
   xmlns="http://www.w3.org/2000/svg"
   xmlns:sodipodi="http://sodipodi.sourceforge.net/DTD/sodipodi-0.dtd"
   xmlns:inkscape="http://www.inkscape.org/namespaces/inkscape"
   version="1.1"
   id="Layer_1"
   x="0px"
   y="0px"
   viewBox="0 0 496.2 496.2"
   style="enable-background:new 0 0 496.2 496.2;"
   xml:space="preserve"
   sodipodi:docname="11a.svg"
   inkscape:version="1.0 (1.0+r73+1)"><metadata
   id="metadata796"><rdf:RDF><cc:Work
       rdf:about=""><dc:format>image/svg+xml</dc:format><dc:type
         rdf:resource="http://purl.org/dc/dcmitype/StillImage" /><dc:title></dc:title></cc:Work></rdf:RDF></metadata><defs
   id="defs794" /><sodipodi:namedview
   inkscape:document-rotation="0"
   pagecolor="#ffffff"
   bordercolor="#666666"
   borderopacity="1"
   objecttolerance="10"
   gridtolerance="10"
   guidetolerance="10"
   inkscape:pageopacity="0"
   inkscape:pageshadow="2"
   inkscape:window-width="2298"
   inkscape:window-height="1361"
   id="namedview792"
   showgrid="false"
   inkscape:zoom="2.3115679"
   inkscape:cx="248.10001"
   inkscape:cy="248.10001"
   inkscape:window-x="60"
   inkscape:window-y="48"
   inkscape:window-maximized="0"
   inkscape:current-layer="Layer_1" />
<path
   style="fill:#ffefd6;fill-opacity:0"
   d="M0,248.1C0,111.1,111.1,0,248.1,0s248.1,111.1,248.1,248.1S385.1,496.2,248.1,496.2S0,385.1,0,248.1z  "
   id="path715" />
<path
   style="fill:#e2a379"
   d="m 221.60667,106.4 c 4,0.9 15,5.2 29.2,6.5 1.6,0.1 2.8,2.8 3,6.3 0.2,4.6 -3.4,7.2 -3.2,8.8 0.8,8.3 8.2,30.1 9,40.1 0.2,2.3 0.3,2.8 0.4,5.3 0.3,9.9 -21.5,6.3 -21.5,2.7 -0.2,-14.4 1.5,-47.7 2.5,-52.9 0,0 -16.7,-4.8 -20.5,-10.8 -1.2,-1.9 -2.9,-7 1.1,-6 z"
   id="path717" />
<g
   transform="matrix(-1,0,0,1,496.20667,0)"
   id="g725">
	<path
   style="fill:#f4b382"
   d="m 266.1,107.5 c -3.5,1.5 4.4,15.3 5.3,20.1 l 4.6,4.2 c 11.2,32.9 19.8,46.9 19.8,46.9 5.8,20 21.1,53.9 25.4,60.6 2.5,4.1 21.2,-5.5 19,-10.9 -4.2,-8 -6.8,-9.8 -10.5,-16.9 -3.1,-7.3 -18.6,-31.5 -21.9,-37.6 -0.5,-0.8 -23.8,-45.3 -23.8,-45.3 0,0 -0.7,-1.9 -0.9,-5.4 -0.3,-4.8 -3.3,-11.1 -6.4,-13.9 -2.7,-2.3 -7.2,-3.2 -10.6,-1.8 z"
   id="path719" />
	<path
   style="fill:#f4b382"
   d="m 271.1,122.7 c 0,0 -1.5,-4.8 -4.2,-4.2 -2.2,0.5 -2.9,0.9 4.6,9.3 0,0 1.3,-0.8 -0.4,-5.1 z"
   id="path721" />
	<path
   style="fill:#f4b382"
   d="m 353.9,388.2 c -4.2,-2.6 -15.8,-3.9 -15.6,-6.5 1.5,-20.8 7.5,-52 7.5,-52 1.5,-20.7 9.6,-51.7 9.6,-59.3 -1.7,-7.7 -16.6,-15.4 -16.9,-7.4 -1,9.3 -2.2,13.7 -3.2,23.3 -1.5,11.9 -3.3,36.9 -2.3,43.8 0.1,0.9 -3,52.7 -2.2,55.8 0.9,3.5 3.2,2.7 10.2,3.5 5.1,0.7 16.7,1.2 12.9,-1.2 z"
   id="path723" />
</g>
<path
   style="fill:#3d3c3c"
   d="m 249.80667,259.9 14.3,6 c 0,0 1.7,24.3 -1.2,30.9 -2.9,6.6 -16.8,21.5 -16.8,21.5 l -19,-7.2 z"
   id="path727" />
<path
   style="fill:#b3233b"
   d="m 167.30667,282.8 c -3.9,-1.3 -5.5,-2.3 -9.4,-4.1 -7.9,-3.7 -17.1,-8.2 -17.1,-8.2 1,-4.5 2.3,-8.9 3.5,-12.3 l 4.2,-11.8 c 1.2,-3.4 5.4,-13.5 7.4,-17.6 0,0 18.7,1.2 31.6,5.5 13.1,4.4 48.4,21.9 62.3,25.5 l -11.5,26 v 0 l -11.2,25.3 c -21.3,-18.2 -35.6,-25.6 -48.4,-27.1 -4.3,-0.4 -8.4,-0.2 -11.4,-1.2 z"
   id="path729" />
<path
   style="fill:#e2a379"
   d="m 134.10667,252 5.8,-15.9 c 6.6,5.2 10.8,4.2 10.8,4.2 0,0 4.7,2.3 2.1,9.5 -2.7,7.3 -7.7,5.9 -7.7,5.9 0,0 -2.6,-3.4 -11,-3.7 z"
   id="path731" />
<path
   style="fill:#f4b382"
   d="m 109.90667,254.4 c -19.699999,-4.2 -22.499999,-12.7 -20.499999,-22.1 2,-9.4 8.1,-16 27.799999,-11.8 6.6,1.4 11.6,3.7 15.2,6.4 8,5.8 9.7,13.2 9,16.5 -0.7,3.3 -5.2,9.4 -14.9,11.4 -4.5,1 -10,1.1 -16.6,-0.4 z"
   id="path733" />
<path
   style="fill:#d6876b"
   d="m 132.20667,246.5 c 0,0 1.6,-1.9 2.1,-4.5 0.6,-2.6 -0.1,-5 -0.1,-5 -0.3,-0.1 -2.4,1.1 -2.7,2.1 -0.2,0.6 0,2.4 0,2.4 0,0 -1,1.5 -1,2.1 0,0.9 1.7,2.9 1.7,2.9 z"
   id="path735" />
<path
   style="fill:#cc785e"
   d="m 132.20667,246.5 c 0,0 2.4,-1.7 3,-4.4 0.6,-2.6 -0.9,-5.2 -0.9,-5.2 0,0 -0.7,0.4 -1.5,3.1 -0.1,0.5 0.1,1.2 0,1.6 -0.1,0.4 -0.6,0.8 -0.6,1.2 -0.5,3 0,3.7 0,3.7 z"
   id="path737" />
<ellipse
   transform="matrix(0.97804178,0.2084089,0.2084089,-0.97804178,0,0)"
   style="fill:#4c230c;stroke-width:0.999957"
   cx="136.77359"
   cy="-208.66779"
   rx="6.1997352"
   ry="9.0996113"
   id="ellipse739" />
<path
   style="fill:#602f0f"
   d="M 110.60667,255.2 C 90.906671,251 86.806671,244.5 89.406671,232.3 c 2.6,-12.2 9.1,-16.4 28.699999,-12.3 0,0 -11.2,24.9 -18.299999,23.4 7.099999,1.6 10.799999,11.8 10.799999,11.8 z"
   id="path741" />
<g
   transform="matrix(-1,0,0,1,496.20667,0)"
   id="g747">
	<path
   style="fill:#f4b382"
   d="m 371.8,220.4 c -5.2,2.1 -5.2,3.2 -4.5,4.8 l 11.3,-4.2 c -0.6,-1.6 -1.6,-2.7 -6.8,-0.6 z"
   id="path743" />
	<path
   style="fill:#f4b382"
   d="m 385.7,254.3 -12,0.7 c 0.1,1.7 0.6,2.8 6.1,2.5 5.5,-0.2 6,-1.5 5.9,-3.2 z"
   id="path745" />
</g>
<g
   transform="matrix(-1,0,0,1,496.20667,0)"
   id="g753">
	<path
   style="fill:#602f0f"
   d="m 377.7,222.2 c 0.6,-0.2 1.1,-0.3 1.5,-0.4 0.6,-0.1 1,-0.1 1,-0.1 l -1.2,-1.8 c -0.3,0.1 -0.6,0.1 -0.9,0.2 0,0 0.1,0.2 0.3,0.6 v 0 c -0.4,0.4 -1.1,0.9 -2,1.4 0,-0.1 -0.4,0.8 1.3,0.1 z"
   id="path749" />
	<path
   style="fill:#602f0f"
   d="m 385.9,253.2 c -0.4,0.1 -0.9,0.2 -1.5,0.2 -1.8,0.1 -1.1,0.8 -1.1,0.8 1.1,0.1 1.9,0.3 2.4,0.5 0,0.4 -0.1,0.6 -0.1,0.6 0.3,-0.1 0.6,-0.1 0.9,-0.2 l 0.3,-2.1 c 0.1,-0.1 -0.3,0.1 -0.9,0.2"
   id="path751" />
</g>
<path
   style="fill:#333333"
   d="m 260.40667,205.1 c 0.5,-11.6 0.6,-20.6 -0.4,-31.7 -3.1,1.5 -18.4,3.4 -21.5,2.7 0.1,3.6 0.7,30.1 0.7,30.1 -0.8,5 -3.5,54.9 0,81.8 1.5,3.9 3.2,7.2 4.8,9.9 1.8,3 17.8,5.3 24.5,-1.8 6.7,-7 4.3,-18.8 3.7,-26 -1.3,-14.1 -11.8,-65 -11.8,-65 z"
   id="path755" />
<path
   style="fill:#f4b382"
   d="m 407.80667,385.4 c 3,-2.9 5.1,-7.1 4.3,-8.4 -1.4,-2.6 -9.6,-3.2 -12.5,-5.8 -1.8,-1.7 -8.9,-4 -10.3,-4.8 -7.3,-4.1 -20.7,-13.1 -29.5,-18 -2,-1.1 -4.2,-2.2 -6.4,-3.3 -8.9,-4.4 -12.2,16.5 -8.8,17.8 13.5,5 37.8,12.2 42.9,13.4 0,0 8.7,6.5 11.8,8.7 2,1.4 5,3.9 8.5,0.4 z"
   id="path757" />
<path
   style="fill:#3d3c3c"
   d="m 323.30667,333.4 c 11.1,3.4 21.3,7.3 30.2,11.7 -2.5,2.5 -8.4,14.7 -8.8,17.8 -3.4,-1.2 -6.1,-2.3 -7.8,-3 -8.3,-3.5 -20.9,-9.5 -20.9,-9.5 -7.6,-2.8 -60.7,-21.3 -71.3,-27.5 -10.6,-6.2 -17.3,-11.7 -17.3,-11.7 l 11.5,-26.4 c 24.1,10.3 57.2,32.6 64.2,36.9 6.8,4.3 20.2,11.7 20.2,11.7 z"
   id="path759" />
<g
   id="g761">
</g>
<g
   id="g763">
</g>
<g
   id="g765">
</g>
<g
   id="g767">
</g>
<g
   id="g769">
</g>
<g
   id="g771">
</g>
<g
   id="g773">
</g>
<g
   id="g775">
</g>
<g
   id="g777">
</g>
<g
   id="g779">
</g>
<g
   id="g781">
</g>
<g
   id="g783">
</g>
<g
   id="g785">
</g>
<g
   id="g787">
</g>
<g
   id="g789">
</g>
</svg>
