<?xml version="1.0" encoding="UTF-8" standalone="no"?>
<svg
   xmlns:dc="http://purl.org/dc/elements/1.1/"
   xmlns:cc="http://creativecommons.org/ns#"
   xmlns:rdf="http://www.w3.org/1999/02/22-rdf-syntax-ns#"
   xmlns:svg="http://www.w3.org/2000/svg"
   xmlns="http://www.w3.org/2000/svg"
   xmlns:sodipodi="http://sodipodi.sourceforge.net/DTD/sodipodi-0.dtd"
   xmlns:inkscape="http://www.inkscape.org/namespaces/inkscape"
   version="1.1"
   id="Layer_1"
   x="0px"
   y="0px"
   viewBox="0 0 496.2 496.2"
   style="enable-background:new 0 0 496.2 496.2;"
   xml:space="preserve"
   sodipodi:docname="12a.svg"
   inkscape:version="1.0 (1.0+r73+1)"><metadata
   id="metadata879"><rdf:RDF><cc:Work
       rdf:about=""><dc:format>image/svg+xml</dc:format><dc:type
         rdf:resource="http://purl.org/dc/dcmitype/StillImage" /><dc:title></dc:title></cc:Work></rdf:RDF></metadata><defs
   id="defs877" /><sodipodi:namedview
   inkscape:document-rotation="0"
   pagecolor="#ffffff"
   bordercolor="#666666"
   borderopacity="1"
   objecttolerance="10"
   gridtolerance="10"
   guidetolerance="10"
   inkscape:pageopacity="0"
   inkscape:pageshadow="2"
   inkscape:window-width="2231"
   inkscape:window-height="1336"
   id="namedview875"
   showgrid="false"
   inkscape:zoom="2.3115679"
   inkscape:cx="248.10001"
   inkscape:cy="248.10001"
   inkscape:window-x="60"
   inkscape:window-y="48"
   inkscape:window-maximized="0"
   inkscape:current-layer="Layer_1" />
<path
   style="fill:#ffefd6;fill-opacity:0"
   d="M0,248.1C0,111.1,111.1,0,248.1,0s248.1,111.1,248.1,248.1S385.1,496.2,248.1,496.2S0,385.1,0,248.1z  "
   id="path798" />
<path
   style="fill:#e2a379"
   d="m 72.587758,375.1 c 4.1,-0.2 20.3,0.1 21.8,0.3 3.6,0.5 7.400002,-0.9 7.300002,-4.3 -0.1,-2.6 -0.9,-5.1 -0.5,-6.7 2.2,-8.1 8.4,-33.2 11,-43 0.8,-3.3 -19.600002,-9.9 -20.000002,-6.3 -1.5,14.4 -1.1,44.9 -1,50.1 0,0 -21.4,0.9 -21.6,4.7 -0.2,2.2 -1.1,5.5 3,5.2 z"
   id="path800" />
<path
   style="fill:#333333"
   d="m 113.88776,298.3 c 0.5,5.8 2,10.7 -1.8,23.1 -3.1,-1.5 -12.300002,-5.3 -20.000002,-6.3 0.7,-5.8 -0.2,-33 7.3,-40.8 7.900002,-8.2 80.500002,10.9 82.200002,8.3 0,0 36.4,24.6 21.3,34.8 -18.6,12.3 -89,-19.1 -89,-19.1 z"
   id="path802" />
<path
   style="fill:#f4b382"
   d="m 371.98776,373.1 c 0.4,-4.1 6,-17.4 6.4,-18.9 1,-3.5 0.4,-7.4 -3.1,-7.9 -2.6,-0.3 -5.2,0.1 -6.7,-0.6 -7.6,-3.5 -31.3,-11.1 -40.5,-15.2 -2.1,-0.9 -4.3,-1.8 -6.6,-2.7 -9.3,-3.5 -10.6,17.6 -7.1,18.5 13.9,3.8 48.2,8.6 53.4,9.4 0,0 -5.2,18.6 -1.5,19.5 2.2,0.5 5.3,2 5.7,-2.1 z"
   id="path804" />
<path
   style="fill:#3d3c3c"
   d="m 290.28776,318.9 c 11.3,2.4 21.9,5.4 31.2,8.9 -2.2,2.7 -7,15.4 -7.1,18.5 -3.5,-0.9 -30.8,-6.7 -30.8,-6.7 -8.6,-1.8 -59.8,-12 -74.2,-19.4 -3.8,-1.8 -36.5,-11.4 -42.9,-26 -2.4,-5.5 27.5,-19.1 35.6,-17.7 3.9,0 10.5,0.6 14.6,2.8 6.2,3.2 10.2,10.2 10.2,10.2 18.5,9.9 36.2,20.1 41.1,22.6 7.2,3.7 22.3,6.8 22.3,6.8 z"
   id="path806" />
<g
   transform="matrix(-1,0,0,1,448.18776,0)"
   id="g812">
	<path
   style="fill:#e2a379"
   d="m 253.3,71.3 c -3.8,0 -1.8,15.8 -2.8,20.6 l 2.6,5.7 c -2.3,34.7 3.9,49.8 3.9,49.8 -2.3,20.7 -4.8,60.6 -3.4,68.4 1.3,7.8 17.3,6.9 17.9,-1.1 0.6,-7.9 0.3,-15 0.2,-22.9 0,-7.9 -1.2,-37.4 -1.9,-44.3 -0.1,-0.9 -8.2,-49.9 -8.2,-49.9 0,0 0.1,-2 1.2,-5.3 1.6,-4.6 1.2,-11.5 -0.5,-15.2 -1.5,-3.2 -5.2,-5.8 -9,-5.8 z"
   id="path808" />
	<path
   style="fill:#e2a379"
   d="m 252.1,87.1 c 0,0 0.4,-5 -2.2,-5.5 -2.2,-0.4 -3,-0.3 0.6,10.3 0,0 1.5,-0.1 1.6,-4.8 z"
   id="path810" />
</g>
<path
   style="fill:#b3233b"
   d="m 159.08776,220.6 c -0.4,-12.3 9.8,-15.4 16.5,-28.5 0.8,-1.6 8.4,-6.1 12.4,-6.2 4.4,-0.1 8.9,0.6 12.3,4.2 2.6,2.8 7.8,11.5 3.5,34.5 -1,8.9 -8.8,45.6 -1.9,52 0,0 -12.2,9.3 -20.2,11.3 -8,2 -15.3,6.3 -15.3,6.3 -8.4,-19.7 -1,-52.4 -2.8,-64.7 -0.1,0.1 -4.4,-5.4 -4.5,-8.9 z"
   id="path814" />
<path
   style="fill:#e2a379"
   d="m 179.08776,187 c 0,0 3.2,-8.9 5.2,-16.9 l 13.4,-0.9 c -2.6,8 -0.7,18.8 -0.7,18.8 -12.5,-1.3 -17.7,3 -21,4.3 z"
   id="path816" />
<path
   style="fill:#f4b382"
   d="m 193.68776,138.5 c 3.5,-5.3 9.2,-4.8 12.5,-4.1 10.4,2.1 13.3,7.4 15.8,14.7 3.4,9.6 -20.6,22.1 -25.1,22.8 -11.8,1.7 -21.5,-12 -23.9,-18.2 -2.6,-6.8 0.4,-5.9 3.2,-6.7 0.1,0 0.4,-0.5 0.4,-0.5 0.9,-0.4 2.3,-0.7 3.3,-1.8 0,0 0.9,-0.1 1.4,-0.2 0.3,-0.1 0.5,-0.2 0.5,-0.6 0,-1.1 0,-2.2 0.3,-2.7 0.8,-1.8 10,-0.2 11.6,-2.7 z"
   id="path818" />
<path
   style="fill:#d6876b"
   d="m 180.08776,149.1 c 0,0 -0.6,-0.5 -1.8,-3.6 0,-0.5 0.2,-1.3 1.3,-1 0.8,0.2 0,2.3 0.5,4.6 z"
   id="path820" />
<path
   style="fill:#cc785e"
   d="m 180.08776,149.1 c 0,0 -1.8,-0.1 -3.5,-2.7 -0.1,-0.4 0.1,-0.9 0.3,-1 0.8,-0.7 1.5,0.1 1.5,0.1 1.1,3.1 1.7,3.6 1.7,3.6 z"
   id="path822" />
<path
   style="fill:#602f0f"
   d="m 223.88776,149.2 c 4.1,11.7 -7.3,33.2 -32.7,24.3 -1.7,-0.6 -4.1,-2.5 -2.7,-7.1 1,-3.2 3,-5.9 3,-5.9 0.6,-0.8 1.2,-1.6 1.9,-2.5 0.8,-1 6.8,-2.3 6.6,-3.5 -2.2,-12.1 2.1,-19.1 5.2,-20.2 7.8,-1.3 14.3,2.4 18.7,14.9 z"
   id="path824" />
<path
   style="fill:#f4b382"
   d="m 195.48776,161.2 c -5.8,0.1 -6.8,-2 -7.6,-5.2 l 8.7,-1.1 3.8,0.4 c 0.8,3.3 0.9,5.8 -4.9,5.9 z"
   id="path826" />
<path
   style="fill:#4c230c"
   d="m 212.48776,173.7 c 3.3,1.9 8.5,-1.3 11.6,-7.3 3.1,-5.9 3,-12.3 -0.3,-14.2 -3.3,-1.9 -7,1.2 -10.1,7.1 -3.1,6 -4.4,12.5 -1.2,14.4 z"
   id="path828" />
<g
   transform="matrix(-1,0,0,1,448.18776,0)"
   id="g834">
	<path
   style="fill:#602f0f"
   d="m 249.9,153.6 c -1,-0.2 -1.9,-0.5 -2.5,-0.7 -1,-0.4 -1.6,-0.8 -1.6,-0.8 v 3.8 c 0.5,0.2 1,0.4 1.5,0.5 0,0 0,-0.4 0,-1.1 v 0.1 c 0.9,-0.2 2.3,-0.4 4.2,-0.3 0.1,0.1 1.5,-0.9 -1.6,-1.5 z"
   id="path830" />
	<path
   style="fill:#602f0f"
   d="m 234.6,175.5 c -3.5,2 -9.1,-1.6 -12.5,-8.1 -3.4,-6.5 -3.4,-13.4 0.1,-15.4 3.5,-2 7.5,1.4 10.9,7.9 3.5,6.6 5,13.6 1.5,15.6 z"
   id="path832" />
</g>
<path
   style="fill:#4c230c"
   d="m 223.28776,170 c 0.4,0.2 1.5,-1.2 2.6,-3.2 1,-2 1.6,-3.8 1.2,-4 -0.4,-0.2 -1.3,1 -2.3,3 -1.1,2 -1.9,3.9 -1.5,4.2 z"
   id="path836" />
<g
   transform="matrix(-1,0,0,1,448.18776,0)"
   id="g842">
	<path
   style="fill:#f4b382"
   d="m 247.8,66.3 c -3.8,0 -1.8,15.8 -2.8,20.6 l 2.6,5.7 c -2.3,34.7 3.9,49.8 3.9,49.8 -2.3,20.7 -4.8,60.6 -3.4,68.4 1.3,7.8 17.3,6.9 17.9,-1.1 0.6,-7.9 0.3,-15 0.2,-22.9 0,-7.9 -1.2,-37.4 -1.9,-44.3 -0.1,-0.9 -8.2,-49.9 -8.2,-49.9 0,0 0.1,-2 1.2,-5.3 1.6,-4.6 1.2,-11.5 -0.5,-15.2 -1.5,-3.2 -5.2,-5.8 -9,-5.8 z"
   id="path838" />
	<path
   style="fill:#f4b382"
   d="m 246.6,82.1 c 0,0 0.4,-5 -2.2,-5.5 -2.2,-0.4 -3,-0.3 0.6,10.3 0,0 1.5,-0.1 1.6,-4.8 z"
   id="path840" />
</g>
<g
   id="g844">
</g>
<g
   id="g846">
</g>
<g
   id="g848">
</g>
<g
   id="g850">
</g>
<g
   id="g852">
</g>
<g
   id="g854">
</g>
<g
   id="g856">
</g>
<g
   id="g858">
</g>
<g
   id="g860">
</g>
<g
   id="g862">
</g>
<g
   id="g864">
</g>
<g
   id="g866">
</g>
<g
   id="g868">
</g>
<g
   id="g870">
</g>
<g
   id="g872">
</g>
</svg>
