<?xml version="1.0" encoding="UTF-8" standalone="no"?>
<svg
   xmlns:dc="http://purl.org/dc/elements/1.1/"
   xmlns:cc="http://creativecommons.org/ns#"
   xmlns:rdf="http://www.w3.org/1999/02/22-rdf-syntax-ns#"
   xmlns:svg="http://www.w3.org/2000/svg"
   xmlns="http://www.w3.org/2000/svg"
   xmlns:sodipodi="http://sodipodi.sourceforge.net/DTD/sodipodi-0.dtd"
   xmlns:inkscape="http://www.inkscape.org/namespaces/inkscape"
   inkscape:version="1.0 (1.0+r73+1)"
   sodipodi:docname="yoga-svgrepo-com (13).svg"
   xml:space="preserve"
   style="enable-background:new 0 0 496.2 496.2;"
   viewBox="0 0 496.2 496.2"
   y="0px"
   x="0px"
   id="Layer_1"
   version="1.1"><metadata
   id="metadata952"><rdf:RDF><cc:Work
       rdf:about=""><dc:format>image/svg+xml</dc:format><dc:type
         rdf:resource="http://purl.org/dc/dcmitype/StillImage" /></cc:Work></rdf:RDF></metadata><defs
   id="defs950" /><sodipodi:namedview
   inkscape:current-layer="Layer_1"
   inkscape:window-maximized="0"
   inkscape:window-y="48"
   inkscape:window-x="60"
   inkscape:cy="248.10001"
   inkscape:cx="248.10001"
   inkscape:zoom="2.3115679"
   showgrid="false"
   id="namedview948"
   inkscape:window-height="1363"
   inkscape:window-width="2344"
   inkscape:pageshadow="2"
   inkscape:pageopacity="0"
   guidetolerance="10"
   gridtolerance="10"
   objecttolerance="10"
   borderopacity="1"
   bordercolor="#666666"
   pagecolor="#ffffff" />
<path
   id="path881"
   d="M0,248.1C0,111.1,111.1,0,248.1,0s248.1,111.1,248.1,248.1S385.1,496.2,248.1,496.2S0,385.1,0,248.1z  "
   style="fill:#ffefd6;fill-opacity:0" />
<path
   id="path883"
   d="M331.8,178c-1.2-1.5-14.6,5-19.7,11.8c-2,2.7-6.3,5.9-6.3,5.9c-23,18.1-38.1,25.7-38.1,25.7  c-18,10.5-56.4,25.5-61.8,31.2c-5.4,5.7,4.9,18,11.6,13.7c8.2-3.1,13.7-5.9,22.5-11.9c17.9-10.2,29.6-18.8,35.3-22.7  c9.4-6.3,35.9-29.7,35.9-29.7s3.9-1.3,5.9-3c3.5-3,5.8-5.9,7.8-9.6C328,184.3,333,179.5,331.8,178z"
   style="fill:#D89D75;" />
<path
   id="path885"
   d="M248.8,270.6c-0.6-12.3-11-14.6-18.8-27.1c-1-1.6-8.9-5.4-12.9-5.1c-4.4,0.3-8.9,1.3-11.9,5.2  c-2.4,3-6.8,12.1-1.8,35.7c1.2,6,8.5,24.5,20.3,47.4c6.7,12.9,7.8,18.6,13.2,26.3l31.7-26.3c-4.7-6.3-24.4-34.4-23.6-46.7  C245.1,279.9,249,274.1,248.8,270.6z"
   style="fill:#B3233B;" />
<path
   id="path887"
   d="M220.3,240.3c-0.9-0.7-4.6-0.7-9.6-14.6l-13.1,2.8c4.7,6.9,5.8,17.8,5.8,17.8  c6.5-2.6,11.1-2.4,14.6-2.1c0.5,0,2.2,0.5,3.2-1.3C221.8,241.9,221.2,241.1,220.3,240.3z"
   style="fill:#E2A379;" />
<path
   id="path889"
   d="M214.1,205c0.3-6.4-4.5-9.3-7.6-10.8c-9.6-4.5-15.1-1.9-21.4,2.4c-8.4,5.7,3.4,30,6.7,33.3  c8.5,8.4,24.5,3.1,30.1-0.4c6.2-3.9,3.2-5,1.4-7.2c-0.1-0.1,0-0.6,0-0.6c-0.5-0.8-1.4-1.9-1.6-3.4c0,0-0.7-0.6-1-1  c-0.2-0.3-0.3-0.4-0.1-0.8c0.7-0.9,1.3-1.8,1.4-2.3C222.3,212.1,214,207.9,214.1,205z"
   style="fill:#F4B382;" />
<path
   id="path891"
   d="M218.7,221.6c0,0,0.8,0,3.6-1.9c0.2-0.4,0.6-1.1-0.4-1.6C221.1,217.8,220.5,220,218.7,221.6z"
   style="fill:#D6876B;" />
<path
   id="path893"
   d="M218.7,221.6c0,0,1.5,1,4.5-0.1c0.3-0.3,0.4-0.8,0.4-1c-0.2-1-1.2-0.8-1.2-0.8  C219.5,221.6,218.7,221.6,218.7,221.6z"
   style="fill:#CC785E;" />
<path
   id="path895"
   d="M183.5,195.6c-10.3,7-13.9,31,11.9,38.9c1.7,0.5,4.8,0.5,6.4-4.1c1.1-3.2,1.1-6.5,1.1-6.5  c0-1,0-2-0.1-3.2c0-1.2-4.1-5.9-3.2-6.7c9-8.4,9.7-16.6,7.8-19.3C201.9,189.1,194.4,188.2,183.5,195.6z"
   style="fill:#602F0F;" />
<path
   id="path897"
   d="M199.1,222.2c4.6,3.5,6.7,2.4,9.2,0.4l-6.3-6l-3.3-1.9C196.2,216.6,194.5,218.6,199.1,222.2z"
   style="fill:#F4B382;" />
<path
   id="path899"
   d="M178,222.1c-3.8-0.4-6-6.1-5-12.7c1-6.6,4.9-11.6,8.7-11.2c3.8,0.4,4.9,5.1,3.9,11.7  C184.6,216.5,181.8,222.5,178,222.1z"
   style="fill:#4C230C;" />
<g
   id="g905">
	<path
   id="path901"
   d="M201.4,214.4c-0.7-0.7-1.2-1.5-1.6-2.1c-0.6-0.9-0.8-1.5-0.8-1.5l-2.3,3.1c0.3,0.4,0.6,0.9,0.9,1.3   c0,0,0.3-0.3,0.7-0.9c0,0,0,0.1-0.1,0.1c0.9,0.4,2.1,1.1,3.6,2.3C201.8,216.6,203.6,216.7,201.4,214.4z"
   style="fill:#602F0F;" />
	<path
   id="path903"
   d="M176.1,222.9c-4-0.4-6.3-6.7-5.2-13.9s5.2-12.7,9.2-12.3c4,0.5,5.2,5.6,4,12.8   C183.1,216.8,180.1,223.4,176.1,222.9z"
   style="fill:#602F0F;" />
</g>
<path
   id="path907"
   d="M171.6,212.7c-0.4-0.1-0.5-1.9-0.2-4.1c0.3-2.2,1-4,1.4-3.9c0.4,0,0.4,1.6,0.1,3.8  C172.6,210.7,172.1,212.7,171.6,212.7z"
   style="fill:#4C230C;" />
<path
   id="path909"
   d="M237,353c10.6,10.8,28.1,5.2,35.6-0.8c23.6-18.7-14.7-51.3-17.9-44.9c-2.6,5.3-5.1,10.1-7.3,14.3  C244.7,326.6,237,353,237,353z"
   style="fill:#3D3C3C;" />
<path
   id="path911"
   d="M338.4,149.6c0.4,4.8-2.5,15.6-1.3,21.7c0.7,3.6,1.9,10.4,0.4,13.6c-2.4,5.2-6.5,6.1-7.5,7.4  c-5.8,8.2-10.3,36-12.9,41.5c-4.3,9-20.4-3-18.9-6.2c12.4-26.6,19.9-38.9,22.6-43.4c0,0,9.6-29.1,11.3-32.4  C333.2,149.7,338.1,145.5,338.4,149.6z"
   style="fill:#E2A379;" />
<path
   id="path913"
   d="M302.5,263.8c5.8-10,10.6-19.8,14.2-29.1c-6.1,1.2-16-3.8-18.5-7.1c-1.6,3.2-15.7,27.3-15.7,27.3  c-4.4,7.6-31.1,52.4-35.3,68.1c-1.2,4-2,7.7-2.4,10.7c-0.9,6,30.4,15.7,34.7,8.7c5.9-16.7,10.8-49.7,12.9-57.5  C294.7,277.1,302.5,263.8,302.5,263.8z"
   style="fill:#3D3C3C;" />
<path
   id="path915"
   d="M336.4,185.6c-1.1-1.5-14.8,4.2-20.3,10.8c-2.2,2.6-6.6,5.5-6.6,5.5c-23.9,16.9-39.4,23.7-39.4,23.7  c-18.5,9.6-57.6,22.5-63.4,28c-5.7,5.4,3.9,18.2,10.9,14.3c8.3-2.7,14-5.2,23.1-10.7c18.4-9.2,30.5-17.3,36.4-20.8  c9.7-5.8,37.4-27.8,37.4-27.8s4-1.1,6-2.7c3.6-2.8,6.1-5.6,8.3-9.2C332.3,191.6,337.5,187.1,336.4,185.6z"
   style="fill:#F4B382;" />
<g
   id="g917">
</g>
<g
   id="g919">
</g>
<g
   id="g921">
</g>
<g
   id="g923">
</g>
<g
   id="g925">
</g>
<g
   id="g927">
</g>
<g
   id="g929">
</g>
<g
   id="g931">
</g>
<g
   id="g933">
</g>
<g
   id="g935">
</g>
<g
   id="g937">
</g>
<g
   id="g939">
</g>
<g
   id="g941">
</g>
<g
   id="g943">
</g>
<g
   id="g945">
</g>
</svg>
