<?xml version="1.0" encoding="UTF-8" standalone="no"?>
<svg
   xmlns:dc="http://purl.org/dc/elements/1.1/"
   xmlns:cc="http://creativecommons.org/ns#"
   xmlns:rdf="http://www.w3.org/1999/02/22-rdf-syntax-ns#"
   xmlns:svg="http://www.w3.org/2000/svg"
   xmlns="http://www.w3.org/2000/svg"
   xmlns:sodipodi="http://sodipodi.sourceforge.net/DTD/sodipodi-0.dtd"
   xmlns:inkscape="http://www.inkscape.org/namespaces/inkscape"
   inkscape:version="1.0 (1.0+r73+1)"
   sodipodi:docname="yoga-svgrepo-com (14).svg"
   xml:space="preserve"
   style="enable-background:new 0 0 496.2 496.2;"
   viewBox="0 0 496.2 496.2"
   y="0px"
   x="0px"
   id="Layer_1"
   version="1.1"><metadata
   id="metadata1033"><rdf:RDF><cc:Work
       rdf:about=""><dc:format>image/svg+xml</dc:format><dc:type
         rdf:resource="http://purl.org/dc/dcmitype/StillImage" /></cc:Work></rdf:RDF></metadata><defs
   id="defs1031" /><sodipodi:namedview
   inkscape:current-layer="Layer_1"
   inkscape:window-maximized="0"
   inkscape:window-y="48"
   inkscape:window-x="60"
   inkscape:cy="248.10001"
   inkscape:cx="248.10001"
   inkscape:zoom="2.3115679"
   showgrid="false"
   id="namedview1029"
   inkscape:window-height="1330"
   inkscape:window-width="2483"
   inkscape:pageshadow="2"
   inkscape:pageopacity="0"
   guidetolerance="10"
   gridtolerance="10"
   objecttolerance="10"
   borderopacity="1"
   bordercolor="#666666"
   pagecolor="#ffffff" />
<path
   id="path954"
   d="M0,248.1C0,111.1,111.1,0,248.1,0s248.1,111.1,248.1,248.1S385.1,496.2,248.1,496.2S0,385.1,0,248.1z  "
   style="fill:#ffefd6;fill-opacity:0" />
<g
   id="g960">
	<path
   id="path956"
   d="M170.3,71.2c-3,2.2,7.9,13.8,10,18.2l5.4,3c18.7,29.3,32.8,37.8,32.8,37.8   c10.4,18,32.2,51.6,37.9,57.1c5.7,5.5,18-4.8,13.8-11.5s-8.7-12.2-13.4-18.6c-4.7-6.3-23.2-29.4-27.8-34.5   c-0.6-0.7-36.3-35.2-36.3-35.2s-1.2-1.7-2.2-5c-1.4-4.6-5.8-10-9.5-12C177.8,68.8,173.3,69,170.3,71.2z"
   style="fill:#E2A379;" />
	<path
   id="path958"
   d="M178.6,84.6c0,0-2.6-4.3-5-3.1c-2,1-2.6,1.5,6.6,7.9C180.2,89.5,181.3,88.4,178.6,84.6z"
   style="fill:#E2A379;" />
</g>
<path
   id="path962"
   d="M248.6,263.6c0,0-5.5,7.5-6.7,14.2c-2.4,13.9,6.8,22.9,6.8,22.9s28.7,7.6,30.6,0.6  c3.5-13.2,5.1-24.1,6.3-30.6c0.8-4.4-19.8-10.5-19.8-10.5L248.6,263.6z"
   style="fill:#3D3C3C;" />
<path
   id="path964"
   d="M285.8,180.1c-4.4-11.5-15.7-14.2-28.4-22.9c-1.6-0.8-10.4,0.1-13.6,2.4c-3.6,2.5-6.8,5.8-7.4,10.7  c-0.4,3.8,1.4,12.1,8.4,32.9c3.4,10.2,9.7,48.4,3.9,60.4c0,0,13.7-1.3,21.7,0.7s15.3,6.3,15.3,6.3c2.8-37.3,1.3-66.5-1.8-78.5  C283.9,192.1,287,183.4,285.8,180.1z"
   style="fill:#B3233B;" />
<path
   id="path966"
   d="M251.7,154.8c0,0-7.8-5.2-14.2-10.5l-11.3,7.2c6.8,4.8,11.7,14.6,11.7,14.6c9.3-8.5,16-8.1,19.5-9  L251.7,154.8z"
   style="fill:#E2A379;" />
<path
   id="path968"
   d="M222.5,124.1c-3.5-5.3-9.2-4.8-12.5-4.2c-10.4,2.1-13.3,7.4-15.9,14.6c-3.4,9.6,20.5,22.2,25.1,22.8  c11.8,1.8,21.6-12,24-18.2c2.6-6.8-0.3-5.9-3.2-6.7c-0.1,0-0.4-0.5-0.4-0.5c-0.9-0.4-2.2-0.7-3.3-1.8c0,0-0.9-0.1-1.4-0.2  c-0.3-0.1-0.5-0.2-0.5-0.6c0-1.1,0-2.2-0.3-2.7C233.3,125.1,224.1,126.6,222.5,124.1z"
   style="fill:#F4B382;" />
<path
   id="path970"
   d="M236.1,134.8c0,0,0.6-0.5,1.8-3.6c0-0.4-0.2-1.3-1.3-1C235.8,130.4,236.6,132.5,236.1,134.8z"
   style="fill:#D6876B;" />
<path
   id="path972"
   d="M236.1,134.8c0,0,1.8-0.1,3.5-2.7c0.1-0.4-0.1-0.9-0.3-1c-0.8-0.7-1.5,0.1-1.5,0.1  C236.7,134.3,236.1,134.8,236.1,134.8z"
   style="fill:#CC785E;" />
<path
   id="path974"
   d="M192.3,134.7c-4.1,11.7,7.2,33.2,32.6,24.3c1.7-0.6,4.1-2.5,2.7-7.1c-1-3.2-2.9-5.9-2.9-5.9  c-0.6-0.8-1.2-1.6-1.9-2.5c-0.8-1-6.8-2.3-6.6-3.5c2.3-12.1-2.1-19.1-5.1-20.2C203.2,118.6,196.7,122.3,192.3,134.7z"
   style="fill:#602F0F;" />
<path
   id="path976"
   d="M220.6,146.9c5.8,0.1,6.8-2,7.6-5.2l-8.7-1.1l-3.8,0.4C215,144.2,214.8,146.8,220.6,146.9z"
   style="fill:#F4B382;" />
<path
   id="path978"
   d="M203.5,159.3c-3.3,1.9-8.5-1.4-11.6-7.3c-3.1-5.9-2.9-12.3,0.4-14.2c3.3-1.9,7,1.2,10.1,7.1  C205.5,150.9,206.8,157.4,203.5,159.3z"
   style="fill:#4C230C;" />
<g
   id="g984">
	<path
   id="path980"
   d="M217.8,139.3c-1-0.2-1.9-0.5-2.5-0.7c-1-0.4-1.6-0.8-1.6-0.8v3.8c0.5,0.2,1,0.4,1.5,0.5   c0,0,0-0.4,0-1.1v0.1c0.9-0.2,2.3-0.4,4.2-0.3C219.5,140.8,220.9,139.8,217.8,139.3z"
   style="fill:#602F0F;" />
	<path
   id="path982"
   d="M202.5,161.1c-3.5,2-9.1-1.6-12.4-8.1c-3.4-6.5-3.3-13.4,0.1-15.4c3.5-2,7.5,1.4,10.9,7.9   S206,159.1,202.5,161.1z"
   style="fill:#602F0F;" />
</g>
<path
   id="path986"
   d="M192.8,155.5c-0.4,0.2-1.5-1.2-2.6-3.2c-1-2-1.6-3.8-1.2-4c0.4-0.2,1.3,1,2.3,3  C192.4,153.3,193.2,155.3,192.8,155.5z"
   style="fill:#4C230C;" />
<path
   id="path988"
   d="M260.2,453.5c-4-0.9-18.4,0-19.9-0.1c-3.6-0.1-7.1-2.1-6.4-5.5c0.5-2.6,1.8-4.9,1.6-6.5  c-0.8-8.3,2-34.3,1.2-44.4c-0.2-2.3-0.3-4.7-0.4-7.2c-0.3-9.9,20.1-4.3,19.8-0.7c-1,14.4-9.9,49.6-10.9,54.7c0,0,19.3,1.2,18.9,4.9  C263.9,451,264.2,454.4,260.2,453.5z"
   style="fill:#F4B382;" />
<path
   id="path990"
   d="M240.8,358.7c-1.4,11.5-3.2,18.9-4.5,31.1c3.3-1.2,16.8-1.6,19.8-0.7c0.2-3.6,6.5-30,6.5-30  c1.2-4.9,21.4-65.3,19.8-76.6c-0.4-4.1-1.2-7.8-2-10.8c-1.6-5.9-34.1-2.5-35.4,5.6c1.1,17.6-2.5,49.3-3.4,58.1  C240.9,343.5,240.8,358.7,240.8,358.7z"
   style="fill:#3D3C3C;" />
<g
   id="g996">
	<path
   id="path992"
   d="M162.9,70.4c-3,2.2,7.9,13.8,10,18.2l5.4,3c18.7,29.3,32.8,37.8,32.8,37.8   c10.4,18,32.2,51.6,37.9,57.1c5.7,5.5,18-4.8,13.8-11.5s-8.7-12.2-13.4-18.6c-4.7-6.3-23.2-29.4-27.8-34.5   c-0.6-0.7-36.3-35.2-36.3-35.2s-1.2-1.7-2.2-5c-1.4-4.6-5.8-10-9.5-12C170.4,68,165.9,68.2,162.9,70.4z"
   style="fill:#F4B382;" />
	<path
   id="path994"
   d="M171.2,83.9c0,0-2.6-4.3-5-3.1c-2,1-2.6,1.5,6.6,7.9C172.8,88.7,173.9,87.7,171.2,83.9z"
   style="fill:#F4B382;" />
</g>
<g
   id="g998">
</g>
<g
   id="g1000">
</g>
<g
   id="g1002">
</g>
<g
   id="g1004">
</g>
<g
   id="g1006">
</g>
<g
   id="g1008">
</g>
<g
   id="g1010">
</g>
<g
   id="g1012">
</g>
<g
   id="g1014">
</g>
<g
   id="g1016">
</g>
<g
   id="g1018">
</g>
<g
   id="g1020">
</g>
<g
   id="g1022">
</g>
<g
   id="g1024">
</g>
<g
   id="g1026">
</g>
</svg>
