<?xml version="1.0" encoding="UTF-8" standalone="no"?>
<svg
   xmlns:dc="http://purl.org/dc/elements/1.1/"
   xmlns:cc="http://creativecommons.org/ns#"
   xmlns:rdf="http://www.w3.org/1999/02/22-rdf-syntax-ns#"
   xmlns:svg="http://www.w3.org/2000/svg"
   xmlns="http://www.w3.org/2000/svg"
   xmlns:sodipodi="http://sodipodi.sourceforge.net/DTD/sodipodi-0.dtd"
   xmlns:inkscape="http://www.inkscape.org/namespaces/inkscape"
   inkscape:version="1.0 (1.0+r73+1)"
   sodipodi:docname="yoga-svgrepo-com (2).svg"
   xml:space="preserve"
   style="enable-background:new 0 0 496.2 496.2;"
   viewBox="0 0 496.2 496.2"
   y="0px"
   x="0px"
   id="Layer_1"
   version="1.1"><metadata
   id="metadata73"><rdf:RDF><cc:Work
       rdf:about=""><dc:format>image/svg+xml</dc:format><dc:type
         rdf:resource="http://purl.org/dc/dcmitype/StillImage" /></cc:Work></rdf:RDF></metadata><defs
   id="defs71" /><sodipodi:namedview
   inkscape:current-layer="Layer_1"
   inkscape:window-maximized="0"
   inkscape:window-y="48"
   inkscape:window-x="60"
   inkscape:cy="248.10001"
   inkscape:cx="248.10001"
   inkscape:zoom="2.3115679"
   showgrid="false"
   id="namedview69"
   inkscape:window-height="1431"
   inkscape:window-width="2693"
   inkscape:pageshadow="2"
   inkscape:pageopacity="0"
   guidetolerance="10"
   gridtolerance="10"
   objecttolerance="10"
   borderopacity="1"
   bordercolor="#666666"
   pagecolor="#ffffff" />
<path
   id="path2"
   d="M0,248.1C0,111.1,111.1,0,248.1,0s248.1,111.1,248.1,248.1S385.1,496.2,248.1,496.2S0,385.1,0,248.1z  "
   style="fill:#ffefd6;fill-opacity:0.02192389" />
<path
   id="path4"
   d="M377.7,282.7c1.5-3.4-24-10.6-24-10.6c-30.9-15.8-47.3-16.1-47.3-16.1  c-18.1-10.3-53.8-28.3-61.5-30.2c-7.7-1.8-13.1,13.2-6.1,16.9s13.7,6.2,20.9,9.3c7.3,3.1,34.8,13.7,41.4,15.7  c0.9,0.3,49.1,12.1,49.1,12.1s1.8,0.8,4.4,3.2C358.3,286.4,376.3,286.1,377.7,282.7z"
   style="fill:#E2A379;" />
<path
   id="path6"
   d="M232.3,265.4c12,2.4,16.8-7.3,30.8-11.8c1.8-0.6,7.3-7.4,8.1-11.3c0.8-4.3,0.8-8.9-2.2-12.8  c-2.3-3-10.1-9.5-33.5-9c-10.8-0.5-47.4-3.8-59-8.3c0,0-3.8,12.5-7,20.1s-8.7,14.1-8.7,14.1c36.4,8.7,51.6,9.4,63.4,13.1  C224.2,259.6,228.9,264.8,232.3,265.4z"
   style="fill:#B3233B;" />
<path
   id="path8"
   d="M269.2,250.7c0,0,9.3-1.7,17.5-2.4l3-13.1c-8.3,1.3-18.6-2.3-18.6-2.3c-0.7,12.6-5.6,17.5-7.4,20.5  L269.2,250.7z"
   style="fill:#E2A379;" />
<path
   id="path10"
   d="M304.9,260.1c5.2,3.7,10.3,1.1,13.2-0.7c8.9-5.8,9.7-11.8,9.4-19.4c-0.3-10.2-27.2-13.1-31.7-12  c-11.6,2.7-15.7,19.1-15.6,25.7c0,7.3,2.5,5.4,5.4,5.1c0.1,0,0.5,0.3,0.5,0.3c1,0,2.4-0.1,3.7,0.5c0,0,0.9-0.3,1.4-0.3  c0.3,0,0.5,0,0.7,0.4c0.4,1,0.8,2,1.2,2.4C294.5,263.2,302.4,258.4,304.9,260.1z"
   style="fill:#F4B382;" />
<path
   id="path12"
   d="M288.3,255.2c0,0-0.4,0.7-0.3,4c0.2,0.4,0.7,1.1,1.6,0.5C290.2,259.2,288.7,257.5,288.3,255.2z"
   style="fill:#D6876B;" />
<path
   id="path14"
   d="M288.3,255.2c0,0-1.7,0.7-2.3,3.8c0.1,0.4,0.4,0.8,0.6,0.8c1,0.4,1.4-0.6,1.4-0.6  C287.9,255.9,288.3,255.2,288.3,255.2z"
   style="fill:#CC785E;" />
<path
   id="path16"
   d="M329.1,239.2c-0.4-12.4-18.8-28.3-39.3-10.7c-1.4,1.2-2.9,3.8,0.1,7.6c2.1,2.6,4.9,4.4,4.9,4.4  c0.8,0.5,1.7,1.1,2.7,1.7c1.1,0.6,7.2-0.4,7.4,0.9c2.3,12.1,8.9,17,12.2,16.9C324.8,258.2,329.5,252.4,329.1,239.2z"
   style="fill:#602F0F;" />
<path
   id="path18"
   d="M298.3,238.3c-5.4,2-5.6,4.3-5.2,7.6l8.5-2.1l3.4-1.8C304.5,238.7,303.7,236.3,298.3,238.3z"
   style="fill:#F4B382;" />
<path
   id="path20"
   d="M309.6,220.5c2.4-3,8.4-1.8,13.5,2.5c5.1,4.4,7.2,10.3,4.9,13.3c-2.4,3-7,1.4-12-2.9  C310.8,229,307.2,223.4,309.6,220.5z"
   style="fill:#4C230C;" />
<g
   id="g26">
	<path
   id="path22"
   d="M303.6,244.3c1-0.2,1.9-0.3,2.6-0.3c1.1,0,1.7,0.1,1.7,0.1l-1.4-3.6c-0.5,0-1.1,0-1.6,0   c0,0,0.1,0.4,0.4,1.1v-0.1c-0.8,0.5-2,1.2-3.8,1.8C301.5,243.5,300.6,245,303.6,244.3z"
   style="fill:#602F0F;" />
	<path
   id="path24"
   d="M309.9,218.4c2.5-3.1,9-1.8,14.6,3c5.5,4.8,8,11.2,5.5,14.4c-2.5,3.1-7.5,1.4-13-3.4   C311.4,227.6,307.4,221.5,309.9,218.4z"
   style="fill:#602F0F;" />
</g>
<path
   id="path28"
   d="M320.9,220.1c0.3-0.3,1.9,0.6,3.6,2c1.7,1.5,2.8,2.9,2.6,3.3c-0.3,0.3-1.6-0.5-3.3-1.9  C322.1,222,320.7,220.4,320.9,220.1z"
   style="fill:#4C230C;" />
<path
   id="path30"
   d="M176.5,212.3c-20.8-5.7-34.3,2.7-41.1,12.8c-7.9,11.6-3.1,22-3.1,22s23.4,17.4,26.6,10.9  c2.6-5.3,5.1-10.1,7.3-14.3C168.8,238.7,176.5,212.3,176.5,212.3z"
   style="fill:#3D3C3C;" />
<path
   id="path32"
   d="M107.3,277.8c0.4-4.1,17.8-5.1,20.5-6.8c1.3-0.8,2.4-3.2,5.8-3.8c4.5-0.8,7.6,2.4,9.2,2  c8.1-1.9,30.6-4.6,40.5-6.8c2.3-0.5,4.6-1.4,7-1.4c3.3,0,4.3,19.6,3.4,19.6c-14.4,0-49-1-54.2-1.2c0,0-15.8,2-19.6,2.1  C117.6,281.6,106.9,281.9,107.3,277.8z"
   style="fill:#F4B382;" />
<path
   id="path34"
   d="M192.6,267.3l-2.9,13.3c11.9,1.2,48.9-0.1,48.9-13.5c0-27.7-71-27.3-71-27.3c0.5-4.7,1-8.1,1-8.1  c0.8-6-39.1,7.2-36.3,15.4c3,8.9,9.3,15.2,22.6,16.7C171.4,265.6,192.6,267.3,192.6,267.3z"
   style="fill:#3D3C3C;" />
<path
   id="path36"
   d="M388.8,283c1.5-3.4-24-10.6-24-10.6c-30.9-15.8-47.3-16.1-47.3-16.1C299.4,246,263.7,228,256,226.1  c-7.7-1.8-13.1,13.2-6.1,16.9s13.7,6.2,20.9,9.3c7.3,3.1,34.8,13.7,41.4,15.7c0.9,0.3,49.1,12.1,49.1,12.1s1.8,0.8,4.4,3.2  C369.4,286.7,387.3,286.4,388.8,283z"
   style="fill:#F4B382;" />
<g
   id="g38">
</g>
<g
   id="g40">
</g>
<g
   id="g42">
</g>
<g
   id="g44">
</g>
<g
   id="g46">
</g>
<g
   id="g48">
</g>
<g
   id="g50">
</g>
<g
   id="g52">
</g>
<g
   id="g54">
</g>
<g
   id="g56">
</g>
<g
   id="g58">
</g>
<g
   id="g60">
</g>
<g
   id="g62">
</g>
<g
   id="g64">
</g>
<g
   id="g66">
</g>
</svg>
