<?xml version="1.0" encoding="UTF-8" standalone="no"?>
<svg
   xmlns:dc="http://purl.org/dc/elements/1.1/"
   xmlns:cc="http://creativecommons.org/ns#"
   xmlns:rdf="http://www.w3.org/1999/02/22-rdf-syntax-ns#"
   xmlns:svg="http://www.w3.org/2000/svg"
   xmlns="http://www.w3.org/2000/svg"
   xmlns:sodipodi="http://sodipodi.sourceforge.net/DTD/sodipodi-0.dtd"
   xmlns:inkscape="http://www.inkscape.org/namespaces/inkscape"
   version="1.1"
   id="Layer_1"
   x="0px"
   y="0px"
   viewBox="0 0 496.2 496.2"
   style="enable-background:new 0 0 496.2 496.2;"
   xml:space="preserve"
   sodipodi:docname="15a.svg"
   inkscape:version="1.0 (1.0+r73+1)"><metadata
   id="metadata1112"><rdf:RDF><cc:Work
       rdf:about=""><dc:format>image/svg+xml</dc:format><dc:type
         rdf:resource="http://purl.org/dc/dcmitype/StillImage" /><dc:title></dc:title></cc:Work></rdf:RDF></metadata><defs
   id="defs1110" /><sodipodi:namedview
   inkscape:document-rotation="0"
   pagecolor="#ffffff"
   bordercolor="#666666"
   borderopacity="1"
   objecttolerance="10"
   gridtolerance="10"
   guidetolerance="10"
   inkscape:pageopacity="0"
   inkscape:pageshadow="2"
   inkscape:window-width="2662"
   inkscape:window-height="1394"
   id="namedview1108"
   showgrid="false"
   inkscape:zoom="2.3115679"
   inkscape:cx="248.10001"
   inkscape:cy="248.10001"
   inkscape:window-x="60"
   inkscape:window-y="48"
   inkscape:window-maximized="0"
   inkscape:current-layer="Layer_1" />
<path
   style="fill:#ffefd6;fill-opacity:0"
   d="M0,248.1C0,111.1,111.1,0,248.1,0s248.1,111.1,248.1,248.1S385.1,496.2,248.1,496.2S0,385.1,0,248.1z  "
   id="path1035" />
<path
   style="fill:#f4b382"
   d="m 63.209595,275 c 0,4.1 16,7.5 18.5,9.4 1.2,1 2.6,5.1 5.9,6.1 4.4,1.3 8.5,-3.9 10,-3.4 7.900005,2.7 33.200005,1.1 43.300005,0.6 2.3,-0.1 4.7,-0.1 7.2,-0.5 3.1,-0.5 2.1,-20.9 -0.4,-20.5 -14.2,2.4 -47.1,10.3 -52.400005,10 0,0 -15.5,-3.6 -19.3,-4.1 -2.2,-0.3 -12.7,-1.7 -12.8,2.4 z"
   id="path1037" />
<path
   style="fill:#e2a379"
   d="m 408.6096,150.6 c -4.7,0.7 -7.7,4.5 -13.9,4.6 -3.6,0.1 -10.6,0.4 -13.4,2.6 -4.6,3.5 -4.5,7.7 -5.6,8.9 -6.7,7.5 -29.2,22.6 -33.9,26.3 -7.8,6.1 6.7,19.6 9.2,17 19.8,-20.8 29.2,-34.9 32.9,-38.5 0,0 21,-12 23.9,-14.4 1.9,-1.5 4.9,-7.1 0.8,-6.5 z"
   id="path1039" />
<path
   style="fill:#333333"
   d="m 316.9096,214.6 c 8.8,-7.5 16.5,-16.4 25,-21.6 0.8,3.4 6.8,15 9.2,17 -2.9,2.2 -21.9,22.7 -21.9,22.7 -6.7,5.7 -39.8,44.4 -54.4,51.3 -3.7,1.9 -7.2,3.3 -10.1,4.3 -5.7,1.9 -20.9,-27.1 -14.8,-32.6 15.4,-8.8 40.8,-23.8 48.1,-27.4 7.2,-3.6 18.9,-13.7 18.9,-13.7 z"
   id="path1041" />
<path
   style="fill:#3d3c3c"
   d="m 274.2096,289.9 c 0,0 -7.9,1.8 -14.7,1.8 -18.7,0 -21.4,-5.3 -21.4,-5.3 0,0 -8.8,-27.3 -1.6,-28.4 13.5,-2 24.1,-4 30.7,-5.2 4.4,-0.8 10.5,19.8 10.5,19.8 z"
   id="path1043" />
<path
   style="fill:#b3233b"
   d="m 337.6096,245.6 c 12.3,-0.4 18.6,9.8 31.7,16.5 1.6,0.8 6.1,8.4 6.2,12.4 0.1,4.4 -0.6,8.9 -4.2,12.3 -2.8,2.6 -11.5,7.8 -34.5,3.5 -10.7,-1.3 -50.7,-6.3 -62.6,-0.4 0,0 1.3,-13.7 -0.7,-21.7 -2,-8 -6.3,-15.3 -6.3,-15.3 37.3,-2.8 49.2,-1 61.5,-2.8 -0.1,-0.1 5.4,-4.4 8.9,-4.5 z"
   id="path1045" />
<path
   style="fill:#e2a379"
   d="m 374.6096,265.2 c 0,0 4.3,-0.2 11.6,-1.4 l 6.2,15.5 c -8,-2.6 -17.2,-0.1 -17.2,-0.1 1,-11 -4.5,-13.8 -5.9,-17.1 z"
   id="path1047" />
<path
   style="fill:#f4b382"
   d="m 406.0096,254.1 c 5.1,-3.9 10.3,-1.5 13.2,0.3 9.1,5.4 10,11.4 10,19.1 0,10.2 -26.8,14 -31.3,13.1 -11.7,-2.3 -16.3,-18.5 -16.5,-25.1 -0.2,-7.3 2.3,-5.5 5.2,-5.2 0.1,0 0.5,-0.4 0.5,-0.4 1,0 2.4,0.1 3.7,-0.6 0,0 0.9,0.3 1.4,0.3 0.3,0 0.5,0 0.7,-0.4 0.4,-1.1 0.7,-2.1 1.1,-2.5 1.5,-1.3 9.6,3.2 12,1.4 z"
   id="path1049" />
<path
   style="fill:#d6876b"
   d="m 389.6096,259.6 c 0,0 -0.4,-0.7 -0.5,-4 0.2,-0.4 0.6,-1.1 1.5,-0.5 0.8,0.4 -0.7,2.2 -1,4.5 z"
   id="path1051" />
<path
   style="fill:#cc785e"
   d="m 389.6096,259.6 c 0,0 -1.7,-0.7 -2.4,-3.7 0.1,-0.4 0.4,-0.8 0.6,-0.8 1,-0.4 1.4,0.6 1.4,0.6 0,3.2 0.4,3.9 0.4,3.9 z"
   id="path1053" />
<path
   style="fill:#602f0f"
   d="m 430.9096,274.2 c 0,12.4 -17.9,28.9 -38.9,12 -1.4,-1.1 -3.1,-3.7 -0.2,-7.6 2,-2.7 4.7,-4.6 4.7,-4.6 0.8,-0.5 1.7,-1.1 2.7,-1.7 1.1,-0.7 7.2,0.1 7.4,-1.1 1.9,-12.2 8.3,-17.3 11.6,-17.3 7.8,1.4 12.7,7.1 12.7,20.3 z"
   id="path1055" />
<path
   style="fill:#f4b382"
   d="m 400.1096,276.1 c -5.5,-1.8 -5.8,-4.1 -5.5,-7.4 l 8.5,1.8 3.4,1.7 c -0.1,3.3 -0.9,5.8 -6.4,3.9 z"
   id="path1057" />
<path
   style="fill:#4c230c"
   d="m 412.1096,293.6 c 2.5,2.9 8.5,1.5 13.4,-3 4.9,-4.5 6.9,-10.6 4.4,-13.5 -2.5,-2.9 -7,-1.2 -11.9,3.4 -5,4.5 -8.4,10.2 -5.9,13.1 z"
   id="path1059" />
<g
   transform="matrix(-1,0,0,1,496.2096,0)"
   id="g1065">
	<path
   style="fill:#602f0f"
   d="m 90.9,269.9 c -1,0.2 -1.9,0.2 -2.6,0.2 -1.1,0 -1.7,-0.2 -1.7,-0.2 l 1.3,3.6 c 0.5,0 1.1,0 1.6,0 0,0 -0.1,-0.4 -0.3,-1.1 v 0.1 c 0.8,-0.5 2,-1.1 3.9,-1.7 -0.1,0 0.9,-1.4 -2.2,-0.9 z"
   id="path1061" />
	<path
   style="fill:#602f0f"
   d="m 83.8,295.6 c -2.6,3 -9.1,1.5 -14.5,-3.5 -5.4,-5 -7.6,-11.5 -5,-14.5 2.6,-3 7.5,-1.1 12.9,3.8 5.4,5 9.2,11.2 6.6,14.2 z"
   id="path1063" />
</g>
<path
   style="fill:#4c230c"
   d="m 423.4096,293.6 c 0.3,0.3 1.9,-0.6 3.5,-2.1 1.6,-1.5 2.7,-3 2.4,-3.4 -0.3,-0.3 -1.5,0.5 -3.2,2.1 -1.7,1.6 -3,3.1 -2.7,3.4 z"
   id="path1067" />
<path
   style="fill:#3d3c3c"
   d="m 179.2096,283.7 c -11.5,1.4 -21.3,3.3 -32.3,3.6 1.2,-3.3 1.5,-17.7 0.6,-20.7 3.6,-0.2 31.3,-4.8 31.3,-4.8 8.8,-1.1 60.4,-8.2 76.5,-5.9 4.1,0.4 7.8,1.2 10.8,2 5.9,1.6 -14,27.8 -22.1,29.1 -17.6,-1.1 -33.4,-3.3 -41.5,-4.3 -8,-1 -23.3,1 -23.3,1 z"
   id="path1069" />
<g
   transform="matrix(-1,0,0,1,496.2096,0)"
   id="g1075">
	<path
   style="fill:#f4b382"
   d="m 182.9,217.4 c 0,0 7.2,5.5 13.9,12.2 0,0 1.4,0.4 1.9,1.1 0.5,0.7 0.8,2.2 0.8,2.2 1.6,13.2 6.1,25.5 6.1,25.5 -47.5,1.2 -58.8,3.6 -66.3,8.4 -7.5,4.8 -6,13.5 -3.5,16 2.5,2.5 11,3.5 16.5,1 16,-4.5 66.5,-13.3 68.8,-19.9 1.8,-5 -13.3,-28.8 -13.3,-28.8 0,0 -1.8,-8.3 -2.2,-9.6 -0.4,-1.4 -2.6,-4 -4.4,-4.4 -4.8,-1 -9,-1.6 -11.2,-2.2 -3.3,-0.8 -5.7,-1.9 -7.1,-1.5 z"
   id="path1071" />
	<path
   style="fill:#f4b382"
   d="m 194.1,225.2 c 0,0 -3.5,-3.6 -5.6,-2 -1.8,1.4 -2.2,2 8.2,6.3 0,0.1 0.9,-1.1 -2.6,-4.3 z"
   id="path1073" />
</g>
<g
   id="g1077">
</g>
<g
   id="g1079">
</g>
<g
   id="g1081">
</g>
<g
   id="g1083">
</g>
<g
   id="g1085">
</g>
<g
   id="g1087">
</g>
<g
   id="g1089">
</g>
<g
   id="g1091">
</g>
<g
   id="g1093">
</g>
<g
   id="g1095">
</g>
<g
   id="g1097">
</g>
<g
   id="g1099">
</g>
<g
   id="g1101">
</g>
<g
   id="g1103">
</g>
<g
   id="g1105">
</g>
</svg>
