<?xml version="1.0" encoding="UTF-8" standalone="no"?>
<svg
   xmlns:dc="http://purl.org/dc/elements/1.1/"
   xmlns:cc="http://creativecommons.org/ns#"
   xmlns:rdf="http://www.w3.org/1999/02/22-rdf-syntax-ns#"
   xmlns:svg="http://www.w3.org/2000/svg"
   xmlns="http://www.w3.org/2000/svg"
   xmlns:sodipodi="http://sodipodi.sourceforge.net/DTD/sodipodi-0.dtd"
   xmlns:inkscape="http://www.inkscape.org/namespaces/inkscape"
   inkscape:version="1.0 (1.0+r73+1)"
   sodipodi:docname="yoga-svgrepo-com (16).svg"
   xml:space="preserve"
   style="enable-background:new 0 0 496.2 496.2;"
   viewBox="0 0 496.2 496.2"
   y="0px"
   x="0px"
   id="Layer_1"
   version="1.1"><metadata
   id="metadata1193"><rdf:RDF><cc:Work
       rdf:about=""><dc:format>image/svg+xml</dc:format><dc:type
         rdf:resource="http://purl.org/dc/dcmitype/StillImage" /></cc:Work></rdf:RDF></metadata><defs
   id="defs1191" /><sodipodi:namedview
   inkscape:current-layer="Layer_1"
   inkscape:window-maximized="0"
   inkscape:window-y="48"
   inkscape:window-x="60"
   inkscape:cy="248.10001"
   inkscape:cx="248.10001"
   inkscape:zoom="2.3115679"
   showgrid="false"
   id="namedview1189"
   inkscape:window-height="1216"
   inkscape:window-width="2613"
   inkscape:pageshadow="2"
   inkscape:pageopacity="0"
   guidetolerance="10"
   gridtolerance="10"
   objecttolerance="10"
   borderopacity="1"
   bordercolor="#666666"
   pagecolor="#ffffff" />
<path
   id="path1114"
   d="M0,248.1C0,111.1,111.1,0,248.1,0s248.1,111.1,248.1,248.1S385.1,496.2,248.1,496.2S0,385.1,0,248.1z  "
   style="fill:#ffefd6;fill-opacity:0" />
<g
   id="g1120">
	<path
   id="path1116"
   d="M138.8,305.4c-3.4-0.1-5.8-1.5-10-2c-5.2-0.7-13.9,0.1-14.7-1c-2-3,0.4-7.9,3.1-10   c2.1-1.6,4.5-2.6,5.4-4c4.7-6.9,21.1-25.6,26.9-33.8c1.3-1.9,2.8-3.8,4.3-5.7c6.2-7.8,13.7,8.3,11.2,10.9c-10,10.4-32,31.3-36,34.7   c0,0,24.1,6.1,21.3,8.7C148.8,304.7,142.9,305.5,138.8,305.4z"
   style="fill:#E2A379;" />
	<path
   id="path1118"
   d="M384,297.8c0.3-3-10.3-4.7-20.3-6.3c-3.7-0.6-10.3-2.3-10.3-2.3c-11.6-8.7-18.6-15.2-18.6-15.2   c-13.3-16-33.9-47-40.5-51.4s-16.9,7.8-11.6,13.7s10.4,11.8,16.1,17.2c7.7,10.3,22.2,24.6,27,29.7c7.8,8.3,17.9,12,17.9,12   s8.7,5.4,12,6.7c3.4,1.3,8,2.3,12.4,1.3C371.5,302.3,383.6,301.5,384,297.8z"
   style="fill:#E2A379;" />
</g>
<path
   id="path1122"
   d="M259,245.1c8.6,8.8,17.9,3.5,32,7.8c1.8,0.5,10.2-1.9,13-4.7c3.1-3.1,5.8-6.9,5.5-11.8  c-0.2-3.8-2.9-13.6-22.5-26.4c-8.6-6.5-22.3-19-39.6-33.1c-6.3-1.1-22.8-10.4-22.8-10.4c-8.1-1.7-14.2,25.9-14.2,25.9  c25,27.8,37.5,33.5,45.1,43.3C255.5,235.7,256.5,242.6,259,245.1z"
   style="fill:#B3233B;" />
<path
   id="path1124"
   d="M297,254.2c0,0,8.6,3.8,15.8,7.9l9.9-9.1c-7.6-3.6-14.1-12.4-14.1-12.4c-7.7,10-14.4,10.7-17.6,12.2  L297,254.2z"
   style="fill:#E2A379;" />
<path
   id="path1126"
   d="M335.9,278.3c5.4,3.4,10.3,0.5,13.1-1.5c8.6-6.3,8.9-12.3,8.2-20c-1-10.1-28-11.5-32.4-10.1  c-11.5,3.4-14.5,19.9-14.1,26.6c0.5,7.3,2.8,5.2,5.7,4.7c0.1,0,0.6,0.3,0.6,0.3c1-0.1,2.4-0.3,3.7,0.3c0,0,0.9-0.3,1.4-0.4  c0.3-0.1,0.5,0,0.7,0.3c0.5,1,0.9,2,1.4,2.4C325.7,282,333.4,276.7,335.9,278.3z"
   style="fill:#F4B382;" />
<path
   id="path1128"
   d="M319.1,274.3c0,0-0.4,0.7-0.1,4c0.2,0.4,0.7,1.1,1.6,0.4C321.3,278.2,319.6,276.6,319.1,274.3z"
   style="fill:#D6876B;" />
<path
   id="path1130"
   d="M319.1,274.3c0,0-1.6,0.8-2.1,3.9c0.1,0.4,0.5,0.7,0.7,0.8c1,0.3,1.3-0.7,1.3-0.7  C318.8,275.1,319.1,274.3,319.1,274.3z"
   style="fill:#CC785E;" />
<path
   id="path1132"
   d="M358.9,256c-1.2-12.3-20.5-27.1-39.9-8.3c-1.3,1.3-2.7,4,0.5,7.5c2.3,2.5,5.2,4.1,5.2,4.1  c0.9,0.5,1.8,1,2.8,1.5c1.1,0.6,7.1-0.8,7.4,0.4c3,11.9,9.9,16.5,13.2,16.2C355.7,275.2,360.1,269.1,358.9,256z"
   style="fill:#602F0F;" />
<path
   id="path1134"
   d="M328.1,256.9c-5.3,2.4-5.3,4.7-4.8,7.9l8.3-2.6l3.3-2C334.3,256.9,333.4,254.5,328.1,256.9z"
   style="fill:#F4B382;" />
<path
   id="path1136"
   d="M338.3,238.4c2.2-3.1,8.3-2.3,13.6,1.7c5.3,4.1,7.8,9.9,5.6,13c-2.2,3.1-6.9,1.8-12.2-2.2  C340,246.8,336.1,241.5,338.3,238.4z"
   style="fill:#4C230C;" />
<g
   id="g1142">
	<path
   id="path1138"
   d="M333.8,262.6c1-0.3,1.9-0.4,2.6-0.4c1-0.1,1.7,0,1.7,0l-1.6-3.5c-0.5,0-1.1,0.1-1.6,0.1   c0,0,0.2,0.4,0.4,1v-0.1c-0.8,0.6-1.9,1.3-3.7,2.1C331.6,261.9,330.7,263.4,333.8,262.6z"
   style="fill:#602F0F;" />
	<path
   id="path1140"
   d="M338.5,236.3c2.3-3.3,8.9-2.3,14.7,2.1c5.8,4.5,8.7,10.7,6.3,14c-2.3,3.3-7.4,1.8-13.2-2.6   C340.5,245.4,336.1,239.6,338.5,236.3z"
   style="fill:#602F0F;" />
</g>
<path
   id="path1144"
   d="M349.6,237.3c0.3-0.4,1.9,0.4,3.7,1.8c1.8,1.4,3,2.8,2.8,3.1c-0.3,0.4-1.6-0.4-3.4-1.7  C350.9,239.2,349.3,237.7,349.6,237.3z"
   style="fill:#4C230C;" />
<g
   id="g1150">
	<path
   id="path1146"
   d="M403.8,315.4c0.3-3-10-4.7-20.3-6.3c-3.7-0.6-10.3-2.3-10.3-2.3c-26.4-16.1-37.8-28.4-37.8-28.4   c-13.3-16-34.4-51.4-41-55.8c-6.6-4.4-16.9,7.8-11.6,13.7c4.4,7.5,8.1,12.5,15.4,20.2c13,16,23.5,26,28.2,31.1   c7.8,8.3,37.1,25.3,37.1,25.3s8.7,5.4,12,6.7c3.4,1.3,8,2.3,12.4,1.3C391.3,320,403.4,319.2,403.8,315.4z"
   style="fill:#F4B382;" />
	<path
   id="path1148"
   d="M120.1,320.1c-3.4-0.1-5.8-1.5-10-2c-5.2-0.7-13.9,0.1-14.7-1c-2-3,0.4-7.9,3.1-10   c2.1-1.6,4.5-2.6,5.4-4c4.7-6.9,21.1-25.6,26.9-33.8c1.3-1.9,2.8-3.8,4.3-5.7c6.2-7.8,18.1,9.6,15.6,12.2   c-10,10.4-36.4,30-40.4,33.3c0,0,24.1,6.1,21.3,8.7C130.1,319.4,124.2,320.2,120.1,320.1z"
   style="fill:#F4B382;" />
</g>
<g
   id="g1156">
	<path
   id="path1152"
   d="M157.4,239.9c-8.5,7.9-16,15.9-22.1,23.7c3.3,1.1,13.9,9.6,15.6,12.2c2.5-2.6,23-21.6,23-21.6   c6.5-6,45.1-41,53.6-54.8c2.3-3.5,4.1-6.7,5.4-9.6c2.6-5.5-24.5-23.9-30.7-18.5c-10.5,14.2-24.8,44.4-29.2,51.2   C168.7,229.4,157.4,239.9,157.4,239.9z"
   style="fill:#3D3C3C;" />
	<path
   id="path1154"
   d="M247.3,176.9c-16.2-15.2-24.4-14.4-33.3-12.6c0,0-8.4,2-13.6,6.4c-10.7,9.1-10.4,21-10.4,21   s18.5,25.7,23.9,20.9c4.4-3.9,8.5-7.5,12.2-10.6C230.3,198.4,247.3,176.9,247.3,176.9z"
   style="fill:#3D3C3C;" />
</g>
<g
   id="g1158">
</g>
<g
   id="g1160">
</g>
<g
   id="g1162">
</g>
<g
   id="g1164">
</g>
<g
   id="g1166">
</g>
<g
   id="g1168">
</g>
<g
   id="g1170">
</g>
<g
   id="g1172">
</g>
<g
   id="g1174">
</g>
<g
   id="g1176">
</g>
<g
   id="g1178">
</g>
<g
   id="g1180">
</g>
<g
   id="g1182">
</g>
<g
   id="g1184">
</g>
<g
   id="g1186">
</g>
</svg>
