<?xml version="1.0" encoding="UTF-8" standalone="no"?>
<svg
   xmlns:dc="http://purl.org/dc/elements/1.1/"
   xmlns:cc="http://creativecommons.org/ns#"
   xmlns:rdf="http://www.w3.org/1999/02/22-rdf-syntax-ns#"
   xmlns:svg="http://www.w3.org/2000/svg"
   xmlns="http://www.w3.org/2000/svg"
   xmlns:sodipodi="http://sodipodi.sourceforge.net/DTD/sodipodi-0.dtd"
   xmlns:inkscape="http://www.inkscape.org/namespaces/inkscape"
   inkscape:version="1.0 (1.0+r73+1)"
   sodipodi:docname="yoga-svgrepo-com (19).svg"
   xml:space="preserve"
   style="enable-background:new 0 0 496.2 496.2;"
   viewBox="0 0 496.2 496.2"
   y="0px"
   x="0px"
   id="Layer_1"
   version="1.1"><metadata
   id="metadata1434"><rdf:RDF><cc:Work
       rdf:about=""><dc:format>image/svg+xml</dc:format><dc:type
         rdf:resource="http://purl.org/dc/dcmitype/StillImage" /></cc:Work></rdf:RDF></metadata><defs
   id="defs1432" /><sodipodi:namedview
   inkscape:current-layer="Layer_1"
   inkscape:window-maximized="0"
   inkscape:window-y="48"
   inkscape:window-x="60"
   inkscape:cy="248.10001"
   inkscape:cx="248.10001"
   inkscape:zoom="2.3115679"
   showgrid="false"
   id="namedview1430"
   inkscape:window-height="1289"
   inkscape:window-width="2589"
   inkscape:pageshadow="2"
   inkscape:pageopacity="0"
   guidetolerance="10"
   gridtolerance="10"
   objecttolerance="10"
   borderopacity="1"
   bordercolor="#666666"
   pagecolor="#ffffff" />
<path
   id="path1345"
   d="M0,248.1C0,111.1,111.1,0,248.1,0s248.1,111.1,248.1,248.1S385.1,496.2,248.1,496.2S0,385.1,0,248.1z  "
   style="fill:#ffefd6;fill-opacity:0" />
<path
   id="path1347"
   d="M460.5,311.3c-4.3,2.1-15.4,3.5-20.6,6.9c-3,2-9,5.7-12.5,5.5c-5.8-0.3-8.1-3.8-9.7-4.1  c-9.8-2.3-37,3.7-43,3.4c-9.9-0.6-5.7-19.4-2.1-19.2c29.3,1.5,44,3.4,49.1,4.2c0,0,30.5-2,34.3-1.6  C458.5,306.5,464.1,309.4,460.5,311.3z"
   style="fill:#F4B382;" />
<g
   id="g1353">
	<path
   id="path1349"
   d="M342.6,320.6c11.4,1.7,22.4,2.4,32.3,2.3c-1.2-3.3-1.3-16.2-0.4-19.2c-3.6-0.3-31.2-4.9-31.2-4.9   c-8.8-1.3-60.2-9.3-76.3-7.3c-4.2,0.4-7.8,1-10.9,1.8c-5.9,1.5,12.3,30,12.3,30c15.3,1.2,42.7-3.2,50.8-4.1   C327.4,318.4,342.6,320.6,342.6,320.6z"
   style="fill:#3D3C3C;" />
	<path
   id="path1351"
   d="M206,303.3c3.9,7.7,8,12.4,11.3,15.3c3.8,3.3,7,5.3,17,5.3c8.1,0,13.7-3.3,13.7-3.3   s5.6,3.3,13.7,3.3c10,0,13.2-2,17-5.3c3.3-2.9,7.4-7.5,11.3-15.3H206z"
   style="fill:#3D3C3C;" />
</g>
<path
   id="path1355"
   d="M35.7,311.3c4.3,2.1,15.4,3.5,20.6,6.9c3,2,9,5.7,12.5,5.5c5.8-0.3,8.1-3.8,9.7-4.1  c9.8-2.3,37,3.7,43,3.4c9.9-0.6,5.7-19.4,2.1-19.2c-29.3,1.5-44,3.4-49.1,4.2c0,0-30.5-2-34.3-1.6C37.7,306.5,32.1,309.4,35.7,311.3  z"
   style="fill:#F4B382;" />
<g
   id="g1361">
	<path
   id="path1357"
   d="M153.6,320.6c-11.4,1.7-22.4,2.4-32.3,2.3c1.2-3.3,1.3-16.2,0.4-19.2c3.6-0.3,31.2-4.9,31.2-4.9   c8.8-1.3,60.2-9.3,76.3-7.3c4.2,0.4,7.8,1,10.9,1.8c5.9,1.5-12.3,30-12.3,30c-15.3,1.2-42.7-3.2-50.8-4.1   C168.8,318.4,153.6,320.6,153.6,320.6z"
   style="fill:#3D3C3C;" />
	<path
   id="path1359"
   d="M220.4,289.5l1.2,20.3c0,0,16.9,6.7,24.2,6.7s28.8-6.7,28.8-6.7l1.2-20.3H220.4z"
   style="fill:#3D3C3C;" />
</g>
<g
   id="g1371">
	<path
   id="path1363"
   d="M86,188.7c0-3.7,15.8-1.7,20.6-2.7l5.6,2.6c34.7-2.1,50.9,0.5,50.9,0.5c20.7-2.2,57.9-0.9,65.7,0.5   c4.7,0.8,0.4,21.4-5.5,21.4c-9-0.9-53.3-8.3-60.2-9.1c-0.9-0.1-51-4.8-51-4.8s-2,0-5.4,1.2c-4.6,1.6-11.5,1.2-15.2-0.6   C88.5,196.2,86,192.4,86,188.7z"
   style="fill:#F4B382;" />
	<path
   id="path1365"
   d="M101.7,188.3c0,0-5,0.4-5.5-2.2c-0.4-2.2-0.3-3,10.3,0.7C106.5,186.8,106.3,188.3,101.7,188.3z"
   style="fill:#F4B382;" />
	<path
   id="path1367"
   d="M410.2,188.7c0-3.7-15.8-1.7-20.6-2.7l-5.6,2.6c-34.7-2.1-50.9,0.5-50.9,0.5   c-20.7-2.2-57.9-0.9-65.7,0.5c-4.7,0.8-0.4,21.4,5.5,21.4c9-0.9,53.3-8.3,60.2-9.1c0.9-0.1,51-4.8,51-4.8s2,0,5.4,1.2   c4.6,1.6,11.5,1.2,15.2-0.6C407.7,196.2,410.2,192.4,410.2,188.7z"
   style="fill:#F4B382;" />
	<path
   id="path1369"
   d="M394.5,188.3c0,0,5,0.4,5.5-2.2c0.4-2.2,0.3-3-10.3,0.7C389.7,186.8,389.9,188.3,394.5,188.3z"
   style="fill:#F4B382;" />
</g>
<path
   id="path1373"
   d="M274.6,222.2c1.9-11.5-7.5-32.4-7.5-32.4c-4.5-0.6-9.1-0.8-12.7-0.8h-12.6c-3.6,0-8.2,0.2-12.7,0.8  c0,0-9.4,21-7.5,32.4c1.8,10.7,4.8,26.4-1.2,67.3h27.7l0,0h27.7C269.8,248.6,272.8,232.9,274.6,222.2z"
   style="fill:#B3233B;" />
<path
   id="path1375"
   d="M256.5,177.5h-16.9c2.6,8,0.2,11.6,0.2,11.6s0.5,5.2,8.3,5.2c7.7,0,8.2-5.2,8.2-5.2  S253.9,185.4,256.5,177.5z"
   style="fill:#E2A379;" />
<path
   id="path1377"
   d="M265.4,154.2c0-20.1-7.8-24.7-17.3-24.7s-17.3,4.6-17.3,24.7c0,6.8,1.2,12.1,3,16.2  c4,9,10.9,12.2,14.3,12.2s10.3-3.2,14.3-12.2C264.2,166.4,265.4,161,265.4,154.2z"
   style="fill:#F4B382;" />
<path
   id="path1379"
   d="M253,174.4c0,0-2.2,1.1-4.9,1.1c-2.7,0-4.9-1.1-4.9-1.1c0-0.3,1.6-2.1,2.6-2.2  c0.6-0.1,2.3,0.5,2.3,0.5s1.6-0.6,2.3-0.5C251.4,172.3,253,174.4,253,174.4z"
   style="fill:#D6876B;" />
<path
   id="path1381"
   d="M253,174.4c0,0-2.2,2-4.9,2c-2.7,0-4.9-2-4.9-2s0.5-0.6,3.4-0.8c0.5,0,1.1,0.4,1.5,0.4  s0.9-0.4,1.3-0.4C252.4,173.8,253,174.4,253,174.4z"
   style="fill:#CC785E;" />
<ellipse
   id="ellipse1383"
   ry="6.2"
   rx="9.1"
   cy="130.5"
   cx="248.1"
   style="fill:#4C230C;" />
<path
   id="path1385"
   d="M266.1,155.1c0-20.1-5.5-25.5-18-25.5s-18,5.5-18,25.5c0,0,26.7-5.8,26.7-13.1  C256.8,149.3,266.1,155.1,266.1,155.1z"
   style="fill:#602F0F;" />
<g
   id="g1391">
	<path
   id="path1387"
   d="M229.1,161.3c0.9,5.5,2.1,5.7,3.8,5.4l-1.8-11.9C229.4,155.1,228.1,155.8,229.1,161.3z"
   style="fill:#F4B382;" />
	<path
   id="path1389"
   d="M265.1,154.8l-1.8,11.9c1.7,0.3,2.8,0,3.8-5.4C268.1,155.8,266.8,155.1,265.1,154.8z"
   style="fill:#F4B382;" />
</g>
<g
   id="g1397">
	<path
   id="path1393"
   d="M232.1,156c-0.1-0.6-0.1-1.1-0.1-1.6c0-0.6,0.1-1,0.1-1l-2,0.8c0,0.3,0,0.6,0,0.9   c0,0,0.2-0.1,0.6-0.2c0,0,0,0-0.1,0c0.3,0.5,0.6,1.2,1,2.3C231.6,157.2,232.4,157.8,232.1,156z"
   style="fill:#602F0F;" />
	<path
   id="path1395"
   d="M264.1,154.4c0,0.4,0,1-0.1,1.5c-0.3,1.8,0.5,1.2,0.5,1.2c0.3-1.1,0.7-1.8,1-2.3   c0.4,0.1,0.6,0.2,0.6,0.2c0-0.3,0-0.6,0-0.9l-2-0.8C264,153.4,264.1,153.8,264.1,154.4"
   style="fill:#602F0F;" />
</g>
<g
   id="g1399">
</g>
<g
   id="g1401">
</g>
<g
   id="g1403">
</g>
<g
   id="g1405">
</g>
<g
   id="g1407">
</g>
<g
   id="g1409">
</g>
<g
   id="g1411">
</g>
<g
   id="g1413">
</g>
<g
   id="g1415">
</g>
<g
   id="g1417">
</g>
<g
   id="g1419">
</g>
<g
   id="g1421">
</g>
<g
   id="g1423">
</g>
<g
   id="g1425">
</g>
<g
   id="g1427">
</g>
</svg>
