<?xml version="1.0" encoding="UTF-8" standalone="no"?>
<svg
   xmlns:dc="http://purl.org/dc/elements/1.1/"
   xmlns:cc="http://creativecommons.org/ns#"
   xmlns:rdf="http://www.w3.org/1999/02/22-rdf-syntax-ns#"
   xmlns:svg="http://www.w3.org/2000/svg"
   xmlns="http://www.w3.org/2000/svg"
   xmlns:sodipodi="http://sodipodi.sourceforge.net/DTD/sodipodi-0.dtd"
   xmlns:inkscape="http://www.inkscape.org/namespaces/inkscape"
   version="1.1"
   id="Layer_1"
   x="0px"
   y="0px"
   viewBox="0 0 496.2 496.2"
   style="enable-background:new 0 0 496.2 496.2;"
   xml:space="preserve"
   sodipodi:docname="20a.svg"
   inkscape:version="1.0 (1.0+r73+1)"><metadata
   id="metadata1517"><rdf:RDF><cc:Work
       rdf:about=""><dc:format>image/svg+xml</dc:format><dc:type
         rdf:resource="http://purl.org/dc/dcmitype/StillImage" /><dc:title></dc:title></cc:Work></rdf:RDF></metadata><defs
   id="defs1515" /><sodipodi:namedview
   inkscape:document-rotation="0"
   pagecolor="#ffffff"
   bordercolor="#666666"
   borderopacity="1"
   objecttolerance="10"
   gridtolerance="10"
   guidetolerance="10"
   inkscape:pageopacity="0"
   inkscape:pageshadow="2"
   inkscape:window-width="2553"
   inkscape:window-height="1424"
   id="namedview1513"
   showgrid="false"
   inkscape:zoom="2.3115679"
   inkscape:cx="248.10001"
   inkscape:cy="248.10001"
   inkscape:window-x="60"
   inkscape:window-y="48"
   inkscape:window-maximized="0"
   inkscape:current-layer="Layer_1" />
<path
   style="fill:#ffefd6;fill-opacity:0"
   d="M0,248.1C0,111.1,111.1,0,248.1,0s248.1,111.1,248.1,248.1S385.1,496.2,248.1,496.2S0,385.1,0,248.1z  "
   id="path1436" />
<path
   style="fill:#e2a379"
   d="m 436.14237,280.7 c -4.1,-2.5 -15,-4.9 -19.8,-8.8 -2.8,-2.3 -8.4,-6.5 -11.9,-6.6 -5.8,-0.2 -8.4,3 -10,3.2 -10,1.4 -36.5,-7.1 -42.5,-7.3 -9.9,-0.3 -7.4,18.8 -3.8,18.9 29.3,1.1 44.1,0.6 49.3,0.3 0,0 30.2,4.7 34,4.7 2.2,0.2 8.2,-2.2 4.7,-4.4 z"
   id="path1438" />
<path
   style="fill:#333333"
   d="m 319.64237,260.7 c 11.5,-0.6 22.5,-0.4 32.4,0.6 -1.5,3.2 -2.8,16.1 -2.1,19.1 -3.6,0 -31.5,2.1 -31.5,2.1 -8.8,0.4 -60.8,3.7 -76.7,0.3 -4.1,-0.7 -7.7,-1.8 -10.7,-2.8 -5.7,-2 15,-28.8 15,-28.8 15.4,0.2 42.3,7.1 50.2,8.7 8,1.6 23.4,0.8 23.4,0.8 z"
   id="path1440" />
<path
   style="fill:#3d3c3c"
   d="m 272.94237,260.4 c 0.7,10.9 -2.7,17.1 -7.2,20.3 -6.3,4.7 -30.1,6.1 -30.1,-0.5 0,-13.6 4.9,-45.5 15.8,-43.6 5,0.9 9.5,2.4 13.1,5.5 5.5,4.5 7.9,10.3 8.4,18.3 z"
   id="path1442" />
<path
   style="fill:#e2a379"
   d="m 60.142365,272.4 c 4.3,2.1 15.4,3.5 20.6,6.9 3,2 9,5.7 12.5,5.5 5.8,-0.3 8.100005,-3.8 9.700005,-4.1 9.8,-2.3 37,3.7 43,3.4 9.9,-0.6 5.7,-19.4 2.1,-19.2 -29.3,1.5 -44,3.4 -49.100005,4.2 0,0 -30.5,-2 -34.3,-1.6 -2.5,0.1 -8.2,3 -4.5,4.9 z"
   id="path1444" />
<path
   style="fill:#b3233b"
   d="m 181.74237,269.7 c -12.3,0.4 -15.4,-9.8 -28.5,-16.5 -1.6,-0.8 -6.1,-8.4 -6.2,-12.4 -0.1,-4.4 0.6,-8.9 4.2,-12.3 2.8,-2.6 11.1,-5.9 34.1,-1.7 7,0.8 24.1,4.2 41,7.3 8.8,1.6 21.8,2 24.8,2.4 0,0 -4.1,8.3 -2.1,16.3 2,8 6.3,15.3 6.3,15.3 -37.3,2.8 -52.4,-4.7 -64.7,-2.9 0.1,0.1 -5.4,4.4 -8.9,4.5 z"
   id="path1446" />
<path
   style="fill:#e2a379"
   d="m 147.54237,250.1 c 0,0 -8.9,-3.2 -16.9,-5.2 l -0.9,-13.4 c 8,2.6 18.8,0.7 18.8,0.7 -1.3,12.5 3,17.7 4.3,21 z"
   id="path1448" />
<path
   style="fill:#f4b382"
   d="m 103.24237,240.5 c -6.200005,-1.3 -7.800005,-6.8 -8.400005,-10.1 -1.9,-10.4 2,-15.1 7.800005,-20.1 7.7,-6.7 28.1,11 30.4,15 5.9,10.4 -3.3,24.4 -8.2,28.9 -5.4,4.9 -5.6,1.8 -7.4,-0.5 -0.1,-0.1 -0.6,-0.2 -0.6,-0.2 -0.7,-0.7 -1.5,-1.8 -2.9,-2.4 0,0 -0.4,-0.9 -0.7,-1.2 -0.2,-0.3 -0.3,-0.4 -0.7,-0.2 -1.1,0.4 -2,0.8 -2.6,0.8 -1.9,-0.2 -3.9,-9.4 -6.7,-10 z"
   id="path1450" />
<path
   style="fill:#d6876b"
   d="m 118.04237,249.3 c 0,0 -0.3,0.8 -2.7,3 -0.4,0.1 -1.3,0.3 -1.4,-0.8 -0.1,-0.9 2.2,-0.9 4.1,-2.2 z"
   id="path1452" />
<path
   style="fill:#cc785e"
   d="m 118.04237,249.3 c 0,0 0.6,1.7 -1.2,4.3 -0.4,0.3 -0.9,0.2 -1,0.1 -0.9,-0.5 -0.5,-1.4 -0.5,-1.4 2.5,-2.2 2.7,-3 2.7,-3 z"
   id="path1454" />
<path
   style="fill:#602f0f"
   d="m 102.04237,208.5 c 9.4,-8.1 33.5,-5.5 34.6,21.5 0.1,1.8 -0.8,4.8 -5.6,5.1 -3.4,0.2 -6.6,-0.6 -6.6,-0.6 -0.9,-0.3 -2,-0.5 -3.1,-0.9 -1.2,-0.4 -4.6,-5.5 -5.7,-4.8 -10.4,6.5 -18.600005,5 -20.700005,2.6 -4,-6.8 -2.9,-14.2 7.100005,-22.9 z"
   id="path1456" />
<path
   style="fill:#f4b382"
   d="m 123.64237,230.5 c 2.2,5.4 0.6,7.1 -2,9 l -4.2,-7.7 -1,-3.7 c 2.6,-1.9 5,-3 7.2,2.4 z"
   id="path1458" />
<path
   style="fill:#4c230c"
   d="m 129.04237,210.1 c 0.6,-3.8 -4.4,-7.4 -11,-8.1 -6.6,-0.7 -12.5,1.7 -13.1,5.5 -0.6,3.8 3.7,6.1 10.3,6.8 6.7,0.7 13.2,-0.5 13.8,-4.2 z"
   id="path1460" />
<g
   transform="matrix(-1,0,0,1,496.14237,0)"
   id="g1466">
	<path
   style="fill:#602f0f"
   d="m 380.6,230.7 c 0.5,-0.9 1.1,-1.6 1.6,-2.1 0.7,-0.8 1.3,-1.2 1.3,-1.2 l -3.6,-1.4 c -0.4,0.4 -0.7,0.8 -1.1,1.2 0,0 0.4,0.2 1,0.4 h -0.1 c -0.2,0.9 -0.5,2.3 -1.3,4 0.1,0.1 0.5,1.8 2.2,-0.9 z"
   id="path1462" />
	<path
   style="fill:#602f0f"
   d="m 365.8,208.5 c -0.6,-4 4.8,-7.8 12.1,-8.6 7.3,-0.8 13.7,1.8 14.3,5.7 0.6,4 -4.1,6.4 -11.3,7.2 -7.3,0.8 -14.5,-0.4 -15.1,-4.3 z"
   id="path1464" />
</g>
<path
   style="fill:#4c230c"
   d="m 121.54237,201.5 c 0.1,-0.4 -1.7,-1 -3.9,-1.2 -2.2,-0.2 -4.1,-0.1 -4.1,0.4 -0.1,0.4 1.4,0.8 3.6,1.1 2.2,0.3 4.4,0.1 4.4,-0.3 z"
   id="path1468" />
<path
   style="fill:#3d3c3c"
   d="m 177.94237,281.7 c -11.4,1.7 -22.4,2.4 -32.3,2.3 1.2,-3.3 1.3,-16.2 0.4,-19.2 3.6,-0.3 31.2,-4.9 31.2,-4.9 8.8,-1.3 60.2,-9.3 76.3,-7.3 4.2,0.4 7.8,1 10.9,1.8 5.9,1.5 -12.3,30 -12.3,30 -15.3,1.2 -42.7,-3.2 -50.8,-4.1 -8.1,-0.9 -23.4,1.4 -23.4,1.4 z"
   id="path1470" />
<g
   transform="matrix(-1,0,0,1,496.14237,0)"
   id="g1480">
	<path
   style="fill:#f4b382"
   d="m 395.1,279 c -21.6,4.2 -28.6,3.7 -34.5,3.3 -5.9,-0.3 -12.8,1 -13.9,1.1 -0.2,0.8 -0.4,1.5 -0.5,2.2 -0.7,4 0.3,6.3 0.9,7.3 0,0 1.9,3.3 5.4,3.6 6.9,0.6 45.9,-9.7 45.9,-9.7 z"
   id="path1472" />
	<path
   style="fill:#f4b382"
   d="m 358.1,292.6 c -1.1,-5.1 -3.7,-13.2 -3.7,-13.2 -1.8,-6.6 -3.7,-15.6 -5.4,-21.6 -2.5,-9.9 -3,-13 -3.3,-15.6 -0.4,-4.2 -1.9,-10.1 -5.5,-12.1 -5.6,-3.1 -14.9,-1.6 -15.3,5.4 -0.5,10.2 14.5,46.4 19.9,54.6 2.2,3.4 4.3,5.5 5.4,5.8 1.1,0.4 3.9,-0.1 6.7,-2.2 0.4,-0.3 0.8,-0.7 1.2,-1.1 z"
   id="path1474" />
	<path
   style="fill:#f4b382"
   d="m 395.1,279 c -0.2,0.1 -0.1,1.4 2.9,7.8 0,0 1.9,-0.7 5.4,-0.7 4.9,-0.1 11.2,-2.8 14.1,-5.8 2.5,-2.5 3.6,-6.9 2.2,-10.4 -1.3,-3.5 -15.5,3.8 -20.3,4.5 z"
   id="path1476" />
	<path
   style="fill:#f4b382"
   d="m 404.6,274.2 c 0,0 4.8,-1.3 4.4,-4 -0.4,-2.2 -0.7,-2.9 -9.5,4.2 0,0.1 0.7,1.4 5.1,-0.2 z"
   id="path1478" />
</g>
<g
   id="g1482">
</g>
<g
   id="g1484">
</g>
<g
   id="g1486">
</g>
<g
   id="g1488">
</g>
<g
   id="g1490">
</g>
<g
   id="g1492">
</g>
<g
   id="g1494">
</g>
<g
   id="g1496">
</g>
<g
   id="g1498">
</g>
<g
   id="g1500">
</g>
<g
   id="g1502">
</g>
<g
   id="g1504">
</g>
<g
   id="g1506">
</g>
<g
   id="g1508">
</g>
<g
   id="g1510">
</g>
</svg>
