<?xml version="1.0" encoding="UTF-8" standalone="no"?>
<svg
   xmlns:dc="http://purl.org/dc/elements/1.1/"
   xmlns:cc="http://creativecommons.org/ns#"
   xmlns:rdf="http://www.w3.org/1999/02/22-rdf-syntax-ns#"
   xmlns:svg="http://www.w3.org/2000/svg"
   xmlns="http://www.w3.org/2000/svg"
   xmlns:sodipodi="http://sodipodi.sourceforge.net/DTD/sodipodi-0.dtd"
   xmlns:inkscape="http://www.inkscape.org/namespaces/inkscape"
   inkscape:version="1.0 (1.0+r73+1)"
   sodipodi:docname="yoga-svgrepo-com (21).svg"
   xml:space="preserve"
   style="enable-background:new 0 0 496.2 496.2;"
   viewBox="0 0 496.2 496.2"
   y="0px"
   x="0px"
   id="Layer_1"
   version="1.1"><metadata
   id="metadata1604"><rdf:RDF><cc:Work
       rdf:about=""><dc:format>image/svg+xml</dc:format><dc:type
         rdf:resource="http://purl.org/dc/dcmitype/StillImage" /></cc:Work></rdf:RDF></metadata><defs
   id="defs1602" /><sodipodi:namedview
   inkscape:current-layer="Layer_1"
   inkscape:window-maximized="0"
   inkscape:window-y="48"
   inkscape:window-x="60"
   inkscape:cy="248.10001"
   inkscape:cx="248.10001"
   inkscape:zoom="2.3115679"
   showgrid="false"
   id="namedview1600"
   inkscape:window-height="1127"
   inkscape:window-width="1978"
   inkscape:pageshadow="2"
   inkscape:pageopacity="0"
   guidetolerance="10"
   gridtolerance="10"
   objecttolerance="10"
   borderopacity="1"
   bordercolor="#666666"
   pagecolor="#ffffff" />
<path
   id="path1519"
   d="M0,248.1C0,111.1,111.1,0,248.1,0s248.1,111.1,248.1,248.1S385.1,496.2,248.1,496.2S0,385.1,0,248.1z  "
   style="fill:#ffefd6;fill-opacity:0.00115838" />
<path
   id="path1521"
   d="M460.5,266.8c-4.3,2.1-15.4,3.5-20.6,6.9c-3,2-9,5.7-12.5,5.5c-5.8-0.3-8.1-3.8-9.7-4.1  c-9.8-2.3-37,3.7-43,3.4c-9.9-0.6-5.7-19.4-2.1-19.2c29.3,1.5,44,3.4,49.1,4.2c0,0,30.5-2,34.3-1.6  C458.5,262,464.1,264.9,460.5,266.8z"
   style="fill:#E2A379;" />
<path
   id="path1523"
   d="M342.6,276.2c11.4,1.7,22.4,2.4,32.3,2.3c-1.2-3.3-1.3-16.2-0.4-19.2c-3.6-0.3-31.2-4.9-31.2-4.9  c-8.8-1.3-60.2-9.3-76.3-7.3c-4.2,0.4-7.8,1-10.9,1.8c-5.9,1.5,12.3,30,12.3,30c15.3,1.2,42.7-3.2,50.8-4.1  C327.4,273.9,342.6,276.2,342.6,276.2z"
   style="fill:#3D3C3C;" />
<path
   id="path1525"
   d="M35.7,266.8c4.3,2.1,15.4,3.5,20.6,6.9c3,2,9,5.7,12.5,5.5c5.8-0.3,8.1-3.8,9.7-4.1  c9.8-2.3,37,3.7,43,3.4c9.9-0.6,5.7-19.4,2.1-19.2c-29.3,1.5-44,3.4-49.1,4.2c0,0-30.5-2-34.3-1.6C37.7,262,32.1,264.9,35.7,266.8z"
   style="fill:#E2A379;" />
<g
   id="g1531">
	<path
   id="path1527"
   d="M153.6,276.2c-11.4,1.7-22.4,2.4-32.3,2.3c1.2-3.3,1.3-16.2,0.4-19.2c3.6-0.3,31.2-4.9,31.2-4.9   c8.8-1.3,60.2-9.3,76.3-7.3c4.2,0.4,7.8,1,10.9,1.8c5.9,1.5-12.3,30-12.3,30c-15.3,1.2-42.7-3.2-50.8-4.1   C168.8,273.9,153.6,276.2,153.6,276.2z"
   style="fill:#3D3C3C;" />
	<path
   id="path1529"
   d="M274.6,279c0,5.2-53,5.2-53,0c0,0,6.5-10.1-1.2-32.2c0,0,7-1.8,27.7-1.8s27.7,1.8,27.7,1.8   C269.8,264.1,274.6,273.9,274.6,279z"
   style="fill:#3D3C3C;" />
</g>
<g
   id="g1541">
	<path
   id="path1533"
   d="M86,261.2c0-3.7,26.3,0,26.3,0c34.7-2.1,50.9,0.5,50.9,0.5c20.7-2.2,57.9-0.9,65.7,0.5   c4.7,0.8,0.4,21.4-5.5,21.4c-9-0.9-53.3-8.3-60.2-9.1c-0.9-0.1-51-4.8-51-4.8S86,264.9,86,261.2z"
   style="fill:#F4B382;" />
	<path
   id="path1535"
   d="M101.7,260.9c0,0-5,0.4-5.5-2.2c-0.4-2.2-0.2-1.7,10.4,2C106.6,260.6,106.3,260.8,101.7,260.9z"
   style="fill:#F4B382;" />
	<path
   id="path1537"
   d="M410.6,261.2c0-3.7-26.3,0-26.3,0c-34.7-2.1-50.9,0.5-50.9,0.5c-20.7-2.2-57.9-0.9-65.7,0.5   c-4.7,0.8-0.4,21.4,5.5,21.4c9-0.9,53.3-8.3,60.2-9.1c0.9-0.1,51-4.8,51-4.8S410.7,264.9,410.6,261.2z"
   style="fill:#F4B382;" />
	<path
   id="path1539"
   d="M395,260.9c0,0,5,0.4,5.5-2.2c0.4-2.2,0.2-1.7-10.4,2C390,260.6,390.3,260.8,395,260.9z"
   style="fill:#F4B382;" />
</g>
<path
   id="path1543"
   d="M274.6,279c0,13.6-20.8,7.8-26.5,7.8c-5.7,0-26.5,5.7-26.5-7.8c0-5.3-1.2-18.4-1.2-18.4  s12.5-4.7,27.7-4.7c15.2,0,27.7,4.7,27.7,4.7S274.6,273.9,274.6,279z"
   style="fill:#B3233B;" />
<path
   id="path1545"
   d="M256.5,254h-16.9c2.6,8,0.2,11.6,0.2,11.6s0.5,5.2,8.3,5.2c7.7,0,8.2-5.2,8.2-5.2  S253.9,262,256.5,254z"
   style="fill:#E2A379;" />
<path
   id="path1547"
   d="M265.4,238.1c0-20.1-7.8-24.7-17.3-24.7s-17.3,4.6-17.3,24.7c0,6.8,1.2,12.1,3,16.2  c4,9,10.9,12.2,14.3,12.2s10.3-3.2,14.3-12.2C264.2,250.2,265.4,244.9,265.4,238.1z"
   style="fill:#F4B382;" />
<path
   id="path1549"
   d="M253,258.3c0,0-2.2,1.1-4.9,1.1c-2.7,0-4.9-1.1-4.9-1.1c0-0.3,1.6-2.1,2.6-2.2  c0.6-0.1,2.3,0.5,2.3,0.5s1.6-0.6,2.3-0.5C251.4,256.2,253,258.3,253,258.3z"
   style="fill:#D6876B;" />
<path
   id="path1551"
   d="M253,258.3c0,0-2.2,2-4.9,2c-2.7,0-4.9-2-4.9-2s0.5-0.6,3.4-0.8c0.5,0,1.1,0.4,1.5,0.4  s0.9-0.4,1.3-0.4C252.4,257.6,253,258.3,253,258.3z"
   style="fill:#CC785E;" />
<ellipse
   id="ellipse1553"
   ry="6.2"
   rx="9.1"
   cy="214.4"
   cx="248.1"
   style="fill:#4C230C;" />
<path
   id="path1555"
   d="M266.1,238.9c0-20.1-5.5-25.5-18-25.5s-18,5.5-18,25.5c0,0,26.7-5.8,26.7-13.1  C256.8,233.2,266.1,238.9,266.1,238.9z"
   style="fill:#602F0F;" />
<g
   id="g1561">
	<path
   id="path1557"
   d="M229.1,245.2c0.9,5.5,2.1,5.7,3.8,5.4l-1.8-11.9C229.4,239,228.1,239.7,229.1,245.2z"
   style="fill:#F4B382;" />
	<path
   id="path1559"
   d="M265.1,238.7l-1.8,11.9c1.7,0.3,2.8,0,3.8-5.4C268.1,239.7,266.8,239,265.1,238.7z"
   style="fill:#F4B382;" />
</g>
<g
   id="g1567">
	<path
   id="path1563"
   d="M232.1,239.8c-0.1-0.6-0.1-1.1-0.1-1.6c0-0.6,0.1-1,0.1-1l-2,0.8c0,0.3,0,0.6,0,0.9   c0,0,0.2-0.1,0.6-0.2c0,0,0,0-0.1,0c0.3,0.5,0.6,1.2,1,2.3C231.6,241,232.4,241.6,232.1,239.8z"
   style="fill:#602F0F;" />
	<path
   id="path1565"
   d="M264.1,238.2c0,0.4,0,1-0.1,1.5c-0.3,1.8,0.5,1.2,0.5,1.2c0.3-1.1,0.7-1.8,1-2.3   c0.4,0.1,0.6,0.2,0.6,0.2c0-0.3,0-0.6,0-0.9l-2-0.8C264,237.2,264.1,237.6,264.1,238.2"
   style="fill:#602F0F;" />
</g>
<g
   id="g1569">
</g>
<g
   id="g1571">
</g>
<g
   id="g1573">
</g>
<g
   id="g1575">
</g>
<g
   id="g1577">
</g>
<g
   id="g1579">
</g>
<g
   id="g1581">
</g>
<g
   id="g1583">
</g>
<g
   id="g1585">
</g>
<g
   id="g1587">
</g>
<g
   id="g1589">
</g>
<g
   id="g1591">
</g>
<g
   id="g1593">
</g>
<g
   id="g1595">
</g>
<g
   id="g1597">
</g>
</svg>
