<?xml version="1.0" encoding="UTF-8" standalone="no"?>
<svg
   xmlns:dc="http://purl.org/dc/elements/1.1/"
   xmlns:cc="http://creativecommons.org/ns#"
   xmlns:rdf="http://www.w3.org/1999/02/22-rdf-syntax-ns#"
   xmlns:svg="http://www.w3.org/2000/svg"
   xmlns="http://www.w3.org/2000/svg"
   xmlns:sodipodi="http://sodipodi.sourceforge.net/DTD/sodipodi-0.dtd"
   xmlns:inkscape="http://www.inkscape.org/namespaces/inkscape"
   version="1.1"
   id="Layer_1"
   x="0px"
   y="0px"
   viewBox="0 0 496.2 496.2"
   style="enable-background:new 0 0 496.2 496.2;"
   xml:space="preserve"
   sodipodi:docname="22a.svg"
   inkscape:version="1.0 (1.0+r73+1)"><metadata
   id="metadata1687"><rdf:RDF><cc:Work
       rdf:about=""><dc:format>image/svg+xml</dc:format><dc:type
         rdf:resource="http://purl.org/dc/dcmitype/StillImage" /><dc:title></dc:title></cc:Work></rdf:RDF></metadata><defs
   id="defs1685" /><sodipodi:namedview
   inkscape:document-rotation="0"
   pagecolor="#ffffff"
   bordercolor="#666666"
   borderopacity="1"
   objecttolerance="10"
   gridtolerance="10"
   guidetolerance="10"
   inkscape:pageopacity="0"
   inkscape:pageshadow="2"
   inkscape:window-width="2145"
   inkscape:window-height="1100"
   id="namedview1683"
   showgrid="false"
   inkscape:zoom="2.3115679"
   inkscape:cx="248.10001"
   inkscape:cy="248.10001"
   inkscape:window-x="60"
   inkscape:window-y="48"
   inkscape:window-maximized="0"
   inkscape:current-layer="Layer_1" />
<path
   style="fill:#ffefd6;fill-opacity:0"
   d="M0,248.1C0,111.1,111.1,0,248.1,0s248.1,111.1,248.1,248.1S385.1,496.2,248.1,496.2S0,385.1,0,248.1z  "
   id="path1606" />
<path
   style="fill:#3d3c3c"
   d="m 182.33287,209 -1.2,20.3 c 0,0 -19.2,6.7 -26.5,6.7 -7.3,0 -26.5,-6.7 -26.5,-6.7 l -1.2,-20.3 z"
   id="path1608" />
<path
   style="fill:#f4b382"
   d="m 165.83287,403.4 c -4,1.3 -8.6,1.2 -9.5,0 -1.7,-2.4 1.6,-10 0.5,-13.7 -0.7,-2.4 0.5,-9.7 0.5,-11.3 -0.4,-8.3 -2.2,-24.4 -2.5,-34.5 -0.1,-2.3 -0.1,-4.7 0,-7.2 0.2,-9.9 20.3,-3.2 19.8,0.3 -1.7,14.3 -6.5,39.2 -7.7,44.3 0,0 1.8,10.7 2.4,14.4 0.3,2.4 1.2,6.2 -3.5,7.7 z"
   id="path1610" />
<path
   style="fill:#3d3c3c"
   d="m 158.13287,304.4 c -2,11.4 -3.2,22.3 -3.4,32.2 3.3,-1.1 16.9,-0.7 19.8,0.3 0.4,-3.6 0.7,-6.5 0.9,-8.3 0.6,-9 1.1,-23 1.1,-23 1,-8 8.8,-63.8 8.2,-76 -0.6,-12.2 -2.5,-20.7 -2.4,-20.7 h -13.1 c -2.9,8 -12.7,5.8 -14.4,13.8 0.2,17.7 1.5,50.2 2.2,58.3 0.6,8.2 1.1,23.4 1.1,23.4 z"
   id="path1612" />
<path
   style="fill:#f4b382"
   d="m 143.43287,403.4 c 4,1.3 8.6,1.2 9.5,0 1.7,-2.4 -1.6,-10 -0.5,-13.7 0.7,-2.4 -0.5,-9.7 -0.5,-11.3 0.4,-8.3 2.2,-24.4 2.5,-34.5 0.1,-2.3 0.1,-4.7 0,-7.2 -0.2,-9.9 -20.3,-3.2 -19.8,0.3 1.7,14.3 6.5,39.2 7.7,44.3 0,0 -1.8,10.7 -2.4,14.4 -0.3,2.4 -1.2,6.2 3.5,7.7 z"
   id="path1614" />
<path
   style="fill:#3d3c3c"
   d="m 151.03287,304.4 c 2,11.4 3.2,22.3 3.4,32.2 -3.3,-1.1 -16.9,-0.7 -19.8,0.3 -0.4,-3.6 -0.7,-6.5 -0.9,-8.3 -0.6,-9 -1.1,-23 -1.1,-23 -1,-8 -8.8,-63.8 -8.2,-76 0.6,-12.2 2.5,-20.7 2.5,-20.7 h 13 c 2.9,8 12.7,5.8 14.4,13.8 -0.2,17.7 -1.5,50.2 -2.2,58.3 -0.6,8.2 -1.1,23.4 -1.1,23.4 z"
   id="path1616" />
<g
   transform="matrix(-1,0,0,1,456.23287,0)"
   id="g1622">
	<path
   style="fill:#eaa97d"
   d="m 124.4,126.3 0.3,1.8 9.6,3.5 c 0.8,2.7 2.7,5.6 5.6,6.8 2.3,0.9 9,-1.2 9,-1.2 9.9,7.4 32,23.9 37.2,27.1 6.6,4.1 43.3,19.4 51.8,21.1 7.7,1.5 30.1,-2.8 30.1,-2.8 -7.1,-3.6 -14.2,-7 -21.5,-10 -7.3,-3 -14.7,-4.3 -22.3,-6.5 -3,-0.9 -26.2,-10 -29.7,-11.6 -7.8,-3.7 -34.2,-18.9 -42.9,-22.1 l -1.3,-0.5 z"
   id="path1618" />
	<path
   style="fill:#eaa97d"
   d="m 124.4,125.6 1,-1.5 10.2,0.7 c 1.9,-2.1 4.8,-4 7.9,-3.9 2.5,0.1 7.7,4.8 7.7,4.8 12.1,-2.7 39,-8.6 45,-9.5 7.7,-1 47.4,0 55.9,2 7.7,1.8 26.3,14.9 26.3,14.9 -7.9,0.4 -15.8,0.5 -23.7,0.3 -7.9,-0.2 -15.2,-2.1 -23,-3.2 -3.1,-0.5 -27.9,-1.6 -31.8,-1.5 -8.7,0.2 -38.9,3.2 -48.2,2.6 l -1.3,-0.1 -15.2,-3.3 z"
   id="path1620" />
</g>
<path
   style="fill:#b3233b"
   d="m 178.63287,131.8 c 10.8,-4.3 33.3,0.5 33.3,0.5 1.5,4.3 2.7,8.8 3.4,12.3 l 2.6,12.3 c 0.7,3.5 1.5,8 1.9,12.6 0,0 -18.5,13.3 -30.1,14.1 -4.1,0.3 -6.6,7.1 -7.2,16.1 -0.5,6.4 -47.1,1.7 -52.7,0.2 0,0 16.1,-55 48.8,-68.1 z"
   id="path1624" />
<path
   style="fill:#e2a379"
   d="m 226.13287,140.1 3.5,16.5 c -8.3,-0.9 -11.4,2.2 -11.4,2.2 0,0 -5.2,0.6 -6.8,-7 -1.6,-7.6 3.4,-9.1 3.4,-9.1 0,0 4,1.7 11.3,-2.6 z"
   id="path1626" />
<path
   style="fill:#f4b382"
   d="m 246.93287,126.5 c 19.6,-4.2 25.8,2.4 27.8,11.8 2,9.4 -0.9,17.9 -20.5,22.1 -6.6,1.4 -12.1,1.4 -16.5,0.4 -9.7,-2 -14.2,-8.1 -14.9,-11.4 -0.7,-3.3 0.9,-10.7 8.9,-16.5 3.6,-2.6 8.6,-4.9 15.2,-6.4 z"
   id="path1628" />
<path
   style="fill:#d6876b"
   d="m 229.83287,143 c 0,0 -0.7,2.4 -0.1,5 0.6,2.6 2.1,4.5 2.1,4.5 0.3,-0.1 1.7,-2 1.6,-3 0,-0.7 -1,-2.1 -1,-2.1 0,0 0.3,-1.7 0.1,-2.3 -0.3,-1.1 -2.7,-2.1 -2.7,-2.1 z"
   id="path1630" />
<path
   style="fill:#cc785e"
   d="m 229.83287,143 c 0,0 -1.5,2.6 -0.9,5.2 0.6,2.6 3,4.4 3,4.4 0,0 0.5,-0.6 0.1,-3.5 -0.1,-0.5 -0.6,-1 -0.7,-1.4 -0.1,-0.4 0.2,-1 0.1,-1.4 -0.8,-2.9 -1.6,-3.3 -1.6,-3.3 z"
   id="path1632" />
<ellipse
   transform="matrix(-0.97776728,0.20969298,0.20969298,0.97776728,0,0)"
   style="fill:#4c230c;stroke-width:1.00003"
   cx="-238.64148"
   cy="192.84369"
   rx="6.2002072"
   ry="9.1003046"
   id="ellipse1634" />
<path
   style="fill:#602f0f"
   d="m 246.03287,126.1 c 19.6,-4.2 26.1,0 28.7,12.2 2.6,12.2 -1.6,18.7 -21.2,22.9 0,0 0,-27.3 7.2,-28.8 -7.1,1.6 -14.7,-6.3 -14.7,-6.3 z"
   id="path1636" />
<g
   transform="matrix(-1,0,0,1,456.23287,0)"
   id="g1642">
	<path
   style="fill:#f4b382"
   d="m 208.6,163.6 c 5.5,0.2 6,-0.8 6.1,-2.5 l -12,-0.8 c -0.1,1.7 0.3,3 5.9,3.3 z"
   id="path1638" />
	<path
   style="fill:#f4b382"
   d="m 209.8,127 11.3,4.2 c 0.6,-1.6 0.6,-2.8 -4.5,-4.8 -5.2,-2.1 -6.2,-1 -6.8,0.6 z"
   id="path1640" />
</g>
<g
   transform="matrix(-1,0,0,1,456.23287,0)"
   id="g1648">
	<path
   style="fill:#602f0f"
   d="m 204,159.5 c -0.6,0 -1.1,-0.1 -1.5,-0.2 -0.6,-0.2 -1,-0.3 -1,-0.3 l 0.3,2.2 c 0.3,0.1 0.6,0.1 0.9,0.2 0,0 0,-0.2 -0.1,-0.6 0,0 0,0 0,0.1 0.5,-0.2 1.3,-0.4 2.4,-0.5 0.1,-0.2 0.8,-0.8 -1,-0.9 z"
   id="path1644" />
	<path
   style="fill:#602f0f"
   d="m 209.1,127.9 c 0.4,0.1 0.9,0.2 1.5,0.4 1.7,0.7 1.3,-0.2 1.3,-0.2 -1,-0.6 -1.6,-1 -2,-1.4 0.2,-0.3 0.3,-0.5 0.3,-0.5 -0.3,-0.1 -0.6,-0.1 -0.9,-0.2 l -1.2,1.8 c 0,-0.1 0.4,-0.1 1,0.1"
   id="path1646" />
</g>
<path
   style="fill:#b3233b"
   d="m 182.33287,209 h -27.7 v 0 h -27.7 c 1.4,-5.2 2,-6.7 2.8,-9.1 l 52.7,-0.2 c -0.1,3.2 -0.5,5.6 -0.1,9.3 z"
   id="path1650" />
<g
   id="g1652">
</g>
<g
   id="g1654">
</g>
<g
   id="g1656">
</g>
<g
   id="g1658">
</g>
<g
   id="g1660">
</g>
<g
   id="g1662">
</g>
<g
   id="g1664">
</g>
<g
   id="g1666">
</g>
<g
   id="g1668">
</g>
<g
   id="g1670">
</g>
<g
   id="g1672">
</g>
<g
   id="g1674">
</g>
<g
   id="g1676">
</g>
<g
   id="g1678">
</g>
<g
   id="g1680">
</g>
</svg>
