<?xml version="1.0" encoding="UTF-8" standalone="no"?>
<svg
   xmlns:dc="http://purl.org/dc/elements/1.1/"
   xmlns:cc="http://creativecommons.org/ns#"
   xmlns:rdf="http://www.w3.org/1999/02/22-rdf-syntax-ns#"
   xmlns:svg="http://www.w3.org/2000/svg"
   xmlns="http://www.w3.org/2000/svg"
   xmlns:sodipodi="http://sodipodi.sourceforge.net/DTD/sodipodi-0.dtd"
   xmlns:inkscape="http://www.inkscape.org/namespaces/inkscape"
   inkscape:version="1.0 (1.0+r73+1)"
   sodipodi:docname="yoga-svgrepo-com (23).svg"
   xml:space="preserve"
   style="enable-background:new 0 0 496.2 496.2;"
   viewBox="0 0 496.2 496.2"
   y="0px"
   x="0px"
   id="Layer_1"
   version="1.1"><metadata
   id="metadata1794"><rdf:RDF><cc:Work
       rdf:about=""><dc:format>image/svg+xml</dc:format><dc:type
         rdf:resource="http://purl.org/dc/dcmitype/StillImage" /></cc:Work></rdf:RDF></metadata><defs
   id="defs1792" /><sodipodi:namedview
   inkscape:current-layer="Layer_1"
   inkscape:window-maximized="0"
   inkscape:window-y="48"
   inkscape:window-x="60"
   inkscape:cy="248.10001"
   inkscape:cx="248.10001"
   inkscape:zoom="2.3115679"
   showgrid="false"
   id="namedview1790"
   inkscape:window-height="1213"
   inkscape:window-width="2331"
   inkscape:pageshadow="2"
   inkscape:pageopacity="0"
   guidetolerance="10"
   gridtolerance="10"
   objecttolerance="10"
   borderopacity="1"
   bordercolor="#666666"
   pagecolor="#ffffff" />
<path
   id="path1689"
   d="M 0,248.1 C 0,111.1 111.1,0 248.1,0 c 137,0 248.1,111.1 248.1,248.1 0,137 -111.1,248.1 -248.1,248.1 C 111.1,496.2 0,385.1 0,248.1 Z"
   style="fill:#ffefd6;stroke-width:1;fill-opacity:0" />
<g
   id="g1695">
	<path
   id="path1691"
   d="M133.7,335.7c-1.6-3.8,1.8-7.6,1.8-10.2c0-2.5-0.6-6.7,2.2-8.8c2-1.5,3.5-4.4,4.2-5.9   c4.7-10.3,14.6-33.2,21.6-42.7c1.4-1.9,25,1.8,23,4.8c-11.8,17.5-34.2,39.6-39.7,49.4c0,0,3.6,15.6,0.4,17.5   C145.1,340.9,135.3,339.5,133.7,335.7z"
   style="fill:#E2A379;" />
	<path
   id="path1693"
   d="M362.7,335.7c1.6-3.8-1.8-7.6-1.8-10.2c0-2.5,0.6-6.7-2.2-8.8c-2-1.5-3.5-4.4-4.2-5.9   c-4.7-10.3-14.6-33.2-21.6-42.7c-1.4-1.9-25,1.8-23,4.8c11.8,17.5,34.2,39.6,39.7,49.4c0,0-3.6,15.6-0.4,17.5   C351.2,340.9,361.1,339.5,362.7,335.7z"
   style="fill:#E2A379;" />
</g>
<path
   id="path1697"
   d="M315.7,245.6c-3.2-9.9-11.4-37.4-23.1-65.6c-4.5-10.9-9.7-16.9-13.6-20.3c-3.8-3.3-7-5.3-17-5.3  c-8.1,0-13.7,3.3-13.7,3.3s-5.6-3.3-13.7-3.3c-10,0-13.2,2-17,5.3c-4,3.4-9.1,9.5-13.6,20.3c-11.8,28.2-19.9,55.7-23.1,65.6  c0,0-10.1,9.8-17.2,22.5c0,0,12-0.3,23,4.8c5.8-8.5,8.8-12,14.8-22.8c0,0,21.5-31.3,25-38.7c3.5-7.3,13.7-14.8,18.5-27.1  c1.3,0.2,2.5,0.3,3.5,0.3c1,0,2.2-0.1,3.5-0.3c4.8,12.4,14.9,19.8,18.5,27.1c3.5,7.3,25,38.7,25,38.7c6,10.8,9,14.2,14.8,22.8  c11-5.1,23-4.8,23-4.8C325.8,255.4,315.7,245.6,315.7,245.6z"
   style="fill:#3D3C3C;" />
<path
   id="path1699"
   d="M274.7,248.1c1.9,11.5-7.5,32.4-7.5,32.4c-4.5,0.6-9.2,1.5-12.7,1.6h-12.6c-3.6,0-8.2-1-12.7-1.6  c0,0-9.4-21-7.5-32.4c1.8-10.7,4.8-30.8-1.2-71.7c0,0,8.2-9.3,27.7-9.3s27.7,9.3,27.7,9.3C269.9,217.3,272.9,237.4,274.7,248.1z"
   style="fill:#B3233B;" />
<path
   id="path1701"
   d="M256.6,292.8h-16.9c2.6-8,0.2-10.8,0.2-10.8h16.5C256.4,282,254,284.9,256.6,292.8z"
   style="fill:#E2A379;" />
<path
   id="path1703"
   d="M266.1,315.2c0,20.1-5.5,25.5-18,25.5s-18-5.5-18-25.5c0,0,26.7,5.8,26.7,13.1  C256.9,321,266.1,315.2,266.1,315.2z"
   style="fill:#602F0F;" />
<g
   id="g1709">
	<path
   id="path1705"
   d="M229.2,309c0.9-5.5,2.1-5.7,3.8-5.4l-1.8,11.9C229.5,315.2,228.2,314.5,229.2,309z"
   style="fill:#F4B382;" />
	<path
   id="path1707"
   d="M265.2,315.5l-1.8-11.9c1.7-0.3,2.8,0,3.8,5.4C268.1,314.5,266.9,315.2,265.2,315.5z"
   style="fill:#F4B382;" />
</g>
<g
   id="g1717">
	<path
   id="path1711"
   d="M231.7,313.1c-0.3,1.1-0.7,1.8-1,2.3c0,0,0,0,0.1,0c-0.4-0.1-0.6-0.2-0.6-0.2c0,0.3,0,0.6,0,0.9   l2,0.8c0,0-0.1-0.4-0.1-1c0-0.4,0-1,0.1-1.6C232.5,312.5,231.7,313.1,231.7,313.1z"
   style="fill:#602F0F;" />
	<path
   id="path1713"
   d="M264.2,315.9c0,0.6-0.1,1-0.1,1l2-0.8c0-0.3,0-0.6,0-0.9c0,0-0.2,0.1-0.6,0.2   c-0.3-0.5-0.6-1.2-1-2.3c0,0-0.8-0.6-0.5,1.2C264.2,314.9,264.2,315.5,264.2,315.9"
   style="fill:#602F0F;" />
	<path
   id="path1715"
   d="M266.5,316.1c0,20.1-8.2,24.7-18.3,24.7c-10.1,0-18.3-4.6-18.3-24.7c0-6.8,1.3-12.1,3.2-16.2   c4.2-9,11.6-12.2,15.1-12.2c3.6,0,10.9,3.2,15.1,12.2C265.2,303.9,266.5,309.3,266.5,316.1z"
   style="fill:#602F0F;" />
</g>
<g
   id="g1729">
	<polygon
   id="polygon1719"
   points="248.2,295.7 249.7,320.8 246.7,320.8  "
   style="fill:#56270E;" />
	<polygon
   id="polygon1721"
   points="260.4,308.2 250.3,331.2 247.6,329.9  "
   style="fill:#56270E;" />
	<polygon
   id="polygon1723"
   points="264.2,322.5 241.2,332.5 240.1,329.7  "
   style="fill:#56270E;" />
	<polygon
   id="polygon1725"
   points="236.1,308.2 248.9,329.9 246.2,331.2  "
   style="fill:#56270E;" />
	<polygon
   id="polygon1727"
   points="232.3,322.5 256.3,329.7 255.3,332.5  "
   style="fill:#56270E;" />
</g>
<ellipse
   id="ellipse1731"
   ry="10.4"
   rx="11.3"
   cy="330.7"
   cx="248.2"
   style="fill:#4C230C;" />
<ellipse
   id="ellipse1733"
   ry="10"
   rx="12.4"
   cy="331.9"
   cx="248.2"
   style="fill:#602F0F;" />
<g
   id="g1739">
	<ellipse
   id="ellipse1735"
   ry="0.8"
   rx="2.9"
   cy="331.7"
   cx="248.2"
   style="fill:#4C230C;" />
	<ellipse
   id="ellipse1737"
   ry="1.8"
   rx="1.3"
   cy="331.7"
   cx="248.2"
   style="fill:#4C230C;" />
</g>
<g
   id="g1757">
	<path
   id="path1741"
   d="M166.6,271c5.1,0.8,13.6,1.5,13.6,1.5c6.8,0.8,15.8,2.3,22,3c10.1,1.4,13.2,2,15.7,2.7   s7.9,1.9,10.8,1.7c1.8-0.2-2.9-20.4-6.3-20.8c-14.7-1.7-40.6-1.1-48.6,0.6c-4,0.8-6.7,2-7.4,2.9s-1.4,3.6-0.4,7   C166.1,269.9,166.3,270.4,166.6,271z"
   style="fill:#F4B382;" />
	<path
   id="path1743"
   d="M146.7,303.6c13.3-17.5,18.9-21.9,23.5-25.5c4.6-3.7,8.9-9.3,9.6-10.1c-0.4-0.7-0.8-1.4-1.1-1.9   c-2.2-3.5-4.4-4.4-5.6-4.8c0,0-3.6-1.2-6.4,0.9c-5.5,4.1-27.6,37.9-27.6,37.9L146.7,303.6z"
   style="fill:#F4B382;" />
	<path
   id="path1745"
   d="M146.7,303.6c0.1-0.2-0.9-1.1-7.4-3.9c0,0-1,1.8-3.6,4.2c-3.5,3.3-6.4,9.6-6.6,13.7   c-0.2,3.5,2,7.5,5.3,9.3c3.3,1.7,9-13.2,12.1-16.9L146.7,303.6z"
   style="fill:#F4B382;" />
	<path
   id="path1747"
   d="M142.8,313.5c0,0-2.7,4.2-0.6,5.9c1.8,1.4,2.5,1.7,4.2-9.4C146.5,309.9,145.1,309.4,142.8,313.5z"
   style="fill:#F4B382;" />
	<path
   id="path1749"
   d="M329.6,271c-5.1,0.8-13.6,1.5-13.6,1.5c-6.8,0.8-15.8,2.3-22,3c-10.1,1.4-13.2,2-15.7,2.7   s-7.9,1.9-10.8,1.7c-1.8-0.2,2.9-20.4,6.3-20.8c14.7-1.7,40.6-1.1,48.6,0.6c4,0.8,6.7,2,7.4,2.9c0.7,0.9,1.4,3.6,0.4,7   C330.1,269.9,329.9,270.4,329.6,271z"
   style="fill:#F4B382;" />
	<path
   id="path1751"
   d="M349.5,303.6c-13.3-17.5-18.9-21.9-23.5-25.5c-4.6-3.7-8.9-9.3-9.6-10.1c0.4-0.7,0.8-1.4,1.1-1.9   c2.2-3.5,4.4-4.4,5.6-4.8c0,0,3.6-1.2,6.4,0.9c5.5,4.1,27.7,37.9,27.7,37.9L349.5,303.6z"
   style="fill:#F4B382;" />
	<path
   id="path1753"
   d="M349.5,303.6c-0.1-0.2,0.9-1.1,7.4-3.9c0,0,1,1.8,3.6,4.2c3.5,3.3,6.4,9.6,6.6,13.7   c0.2,3.5-2,7.5-5.3,9.3c-3.3,1.7-9-13.2-12.1-16.9L349.5,303.6z"
   style="fill:#F4B382;" />
	<path
   id="path1755"
   d="M353.4,313.5c0,0,2.7,4.2,0.6,5.9c-1.8,1.4-2.5,1.7-4.2-9.4C349.7,309.9,351.1,309.4,353.4,313.5z"
   style="fill:#F4B382;" />
</g>
<g
   id="g1759">
</g>
<g
   id="g1761">
</g>
<g
   id="g1763">
</g>
<g
   id="g1765">
</g>
<g
   id="g1767">
</g>
<g
   id="g1769">
</g>
<g
   id="g1771">
</g>
<g
   id="g1773">
</g>
<g
   id="g1775">
</g>
<g
   id="g1777">
</g>
<g
   id="g1779">
</g>
<g
   id="g1781">
</g>
<g
   id="g1783">
</g>
<g
   id="g1785">
</g>
<g
   id="g1787">
</g>
</svg>
