<?xml version="1.0" encoding="UTF-8" standalone="no"?>
<svg
   xmlns:dc="http://purl.org/dc/elements/1.1/"
   xmlns:cc="http://creativecommons.org/ns#"
   xmlns:rdf="http://www.w3.org/1999/02/22-rdf-syntax-ns#"
   xmlns:svg="http://www.w3.org/2000/svg"
   xmlns="http://www.w3.org/2000/svg"
   xmlns:sodipodi="http://sodipodi.sourceforge.net/DTD/sodipodi-0.dtd"
   xmlns:inkscape="http://www.inkscape.org/namespaces/inkscape"
   inkscape:version="1.0 (1.0+r73+1)"
   sodipodi:docname="yoga-svgrepo-com (5).svg"
   xml:space="preserve"
   style="enable-background:new 0 0 496.2 496.2;"
   viewBox="0 0 496.2 496.2"
   y="0px"
   x="0px"
   id="Layer_1"
   version="1.1"><metadata
   id="metadata298"><rdf:RDF><cc:Work
       rdf:about=""><dc:format>image/svg+xml</dc:format><dc:type
         rdf:resource="http://purl.org/dc/dcmitype/StillImage" /></cc:Work></rdf:RDF></metadata><defs
   id="defs296" /><sodipodi:namedview
   inkscape:current-layer="Layer_1"
   inkscape:window-maximized="0"
   inkscape:window-y="48"
   inkscape:window-x="60"
   inkscape:cy="248.10001"
   inkscape:cx="248.10001"
   inkscape:zoom="2.3115679"
   showgrid="false"
   id="namedview294"
   inkscape:window-height="1362"
   inkscape:window-width="2518"
   inkscape:pageshadow="2"
   inkscape:pageopacity="0"
   guidetolerance="10"
   gridtolerance="10"
   objecttolerance="10"
   borderopacity="1"
   bordercolor="#666666"
   pagecolor="#ffffff" />
<path
   id="path221"
   d="M0,248.1C0,111.1,111.1,0,248.1,0s248.1,111.1,248.1,248.1S385.1,496.2,248.1,496.2S0,385.1,0,248.1z  "
   style="fill:#ffefd6;fill-opacity:0" />
<path
   id="path223"
   d="M261.5,279.1c0,0,4.2-7.6,5.3-14.3c2.4-13.9-5.5-22.8-5.5-22.8s-30.7-7.8-31.7-0.7  c-2,13.5-4,24.1-5.2,30.7c-0.8,4.4,19.8,10.5,19.8,10.5L261.5,279.1z"
   style="fill:#3D3C3C;" />
<path
   id="path225"
   d="M217.2,345.7c-0.4,12.3,9.8,15.4,16.5,28.5c0.8,1.6,8.4,6.1,12.4,6.2c4.4,0.1,8.9-0.6,12.3-4.2  c2.6-2.8,7.8-11.5,3.5-34.5c-1.3-10.7-6.3-50.7-0.4-62.6c0,0-13.7,1.3-21.7-0.7s-15.3-6.3-15.3-6.3c-2.8,37.3-1,52.4-2.8,64.7  C221.6,336.7,217.3,342.2,217.2,345.7z"
   style="fill:#B3233B;" />
<path
   id="path227"
   d="M236.8,372.8c0,0,3.2,8.9,5.2,16.9l13.4,0.9c-2.6-8-0.7-11.7-0.7-11.7  C242.2,380.3,236.8,372.8,236.8,372.8z"
   style="fill:#E2A379;" />
<path
   id="path229"
   d="M241.9,407.7c-2.8,5.7,0.6,10.3,2.9,12.9c7.1,7.8,13.2,7.6,20.7,6c10-2,8.4-29,6.6-33.3  c-4.6-11-21.4-12.3-27.9-11.2c-7.2,1.3-4.9,3.4-4.1,6.2c0,0.1-0.2,0.6-0.2,0.6c0.2,1,0.5,2.3,0.1,3.8c0,0,0.4,0.8,0.6,1.3  c0.1,0.3,0.1,0.5-0.2,0.7c-1,0.6-1.9,1.1-2.2,1.6C237.1,398,243.2,405.1,241.9,407.7z"
   style="fill:#F4B382;" />
<path
   id="path231"
   d="M244,390.6c0,0-0.8-0.3-4,0.4c-0.4,0.3-1,0.8-0.2,1.6C240.4,393.2,241.8,391.4,244,390.6z"
   style="fill:#D6876B;" />
<path
   id="path233"
   d="M244,390.6c0,0-1-1.5-4.1-1.6c-0.4,0.1-0.7,0.6-0.7,0.8c-0.2,1,0.8,1.3,0.8,1.3  C243.2,390.3,244,390.6,244,390.6z"
   style="fill:#CC785E;" />
<path
   id="path235"
   d="M266.5,428.2c12.2-2.5,24.8-23.3,4-40.5c-1.4-1.2-4.3-2.3-7.4,1.3c-2.3,2.5-3.5,5.6-3.5,5.6  c-0.4,0.9-0.8,1.9-1.2,3c-0.4,1.2,1.6,7,0.4,7.4c-11.5,4.3-15.3,11.6-14.7,14.8C247,427.1,253.6,430.8,266.5,428.2z"
   style="fill:#602F0F;" />
<path
   id="path237"
   d="M262.3,397.6c-2.9-5-5.2-4.8-8.4-3.9l3.5,8l2.3,3C262.9,403.8,265.2,402.6,262.3,397.6z"
   style="fill:#F4B382;" />
<path
   id="path239"
   d="M281.8,405.8c3.3,1.8,3.2,8-0.3,13.7s-9,8.8-12.3,7s-2.6-6.6,0.9-12.3  C273.6,408.5,278.5,404,281.8,405.8z"
   style="fill:#4C230C;" />
<g
   id="g245">
	<path
   id="path241"
   d="M257.2,403.9c0.4,0.9,0.6,1.8,0.7,2.6c0.2,1,0.2,1.7,0.2,1.7l3.3-2c-0.1-0.5-0.2-1-0.3-1.6   c0,0-0.4,0.2-1,0.6c0,0,0.1,0,0.1-0.1c-0.6-0.7-1.5-1.8-2.4-3.5C257.7,401.7,256.1,401,257.2,403.9z"
   style="fill:#602F0F;" />
	<path
   id="path243"
   d="M283.8,405.8c3.5,1.9,3.3,8.6-0.5,14.9s-9.7,9.8-13.2,7.8s-2.6-7.1,1.2-13.4   C275.1,408.8,280.3,403.8,283.8,405.8z"
   style="fill:#602F0F;" />
</g>
<path
   id="path247"
   d="M284,417c0.4,0.2-0.2,1.9-1.4,3.9s-2.4,3.3-2.8,3.1c-0.4-0.2,0.2-1.6,1.4-3.5S283.6,416.7,284,417z"
   style="fill:#4C230C;" />
<g
   id="g259">
	<path
   id="path249"
   d="M236,427.5c1.9-4.8,4.4-13,4.4-13c2.2-6.5,5.7-14.9,7.7-20.8c3.6-9.6,5.3-16.5,6.6-18.8   c2.1-3.7,4.1-9.4,2.3-13.2c-2.9-5.7-11.4-9.7-15.7-4.1c-6.2,8.2-14.6,50.6-14.8,60.4c-0.1,4.1,0.5,6.9,1.2,7.9   c0.7,0.9,3.3,2.1,6.8,1.9C234.9,427.7,235.4,427.6,236,427.5z"
   style="fill:#F4B382;" />
	<path
   id="path251"
   d="M276.8,421c-22-0.4-28.8-2.4-34.5-4s-12.7-1.7-13.8-1.8c-0.4,0.7-0.7,1.4-0.9,2   c-1.6,3.8-1,6.2-0.6,7.3c0,0,1.2,3.6,4.6,4.7c6.6,2,47,0.1,47,0.1L276.8,421z"
   style="fill:#F4B382;" />
	<path
   id="path253"
   d="M276.8,421c-0.2,0.1-0.4,1.3,1.2,8.3c0,0,1.9,0.4,5.5,0.4c6.9,0,11.1-11.8,7.6-15.8   c-1.8-2-2,2.4-3.2,3c-2.1,1-4.4,0.6-5.7,0.5L276.8,421z"
   style="fill:#F4B382;" />
	<path
   id="path255"
   d="M287.1,418.3c0,0,2.5-6,0.8-6.7c-2-0.9-1.5,2.2-2.2,3.2s-1.5,1.8-3.5,2.6   C282.1,417.5,282.5,418.9,287.1,418.3z"
   style="fill:#F4B382;" />
	<path
   id="path257"
   d="M248.5,66.2c4,1,2.1,18.4,3.3,21.3c0.6,1.5,2.8,2.9,2.8,6.4c0.1,4.6-3.6,7.1-3.5,8.7   c0.6,8.3,5.2,31.4,5.7,41.4c0.1,2.3,0.2,5.2,0.2,7.7c0,9.9-20.2,4.3-19.8,0.7c1.4-14.4,3.3-49.7,4.4-54.8c0,0,0.6-15.9,1.1-19.7   C243.1,75.7,244.5,65.1,248.5,66.2z"
   style="fill:#F4B382;" />
</g>
<path
   id="path261"
   d="M255.4,184.1c1.4-11.5,2-22.4,1.7-32.4c-3.3,1.2-16.8,1.6-19.8,0.7c-0.2,3.6-3.8,31.3-3.8,31.3  c-1.1,8.8-8.2,60.4-5.9,76.5c0.4,4.2,1.2,7.8,2,10.8c1.6,5.9,34.1,2.5,35.4-5.6c-1.1-17.6-9.5-49.9-10.6-58  C253.4,199.4,255.4,184.1,255.4,184.1z"
   style="fill:#3D3C3C;" />
<g
   id="g263">
</g>
<g
   id="g265">
</g>
<g
   id="g267">
</g>
<g
   id="g269">
</g>
<g
   id="g271">
</g>
<g
   id="g273">
</g>
<g
   id="g275">
</g>
<g
   id="g277">
</g>
<g
   id="g279">
</g>
<g
   id="g281">
</g>
<g
   id="g283">
</g>
<g
   id="g285">
</g>
<g
   id="g287">
</g>
<g
   id="g289">
</g>
<g
   id="g291">
</g>
</svg>
