<?xml version="1.0" encoding="UTF-8" standalone="no"?>
<svg
   xmlns:dc="http://purl.org/dc/elements/1.1/"
   xmlns:cc="http://creativecommons.org/ns#"
   xmlns:rdf="http://www.w3.org/1999/02/22-rdf-syntax-ns#"
   xmlns:svg="http://www.w3.org/2000/svg"
   xmlns="http://www.w3.org/2000/svg"
   xmlns:sodipodi="http://sodipodi.sourceforge.net/DTD/sodipodi-0.dtd"
   xmlns:inkscape="http://www.inkscape.org/namespaces/inkscape"
   version="1.1"
   id="Layer_1"
   x="0px"
   y="0px"
   viewBox="0 0 496.2 496.2"
   style="enable-background:new 0 0 496.2 496.2;"
   xml:space="preserve"
   sodipodi:docname="7a.svg"
   inkscape:version="1.0 (1.0+r73+1)"><metadata
   id="metadata462"><rdf:RDF><cc:Work
       rdf:about=""><dc:format>image/svg+xml</dc:format><dc:type
         rdf:resource="http://purl.org/dc/dcmitype/StillImage" /><dc:title></dc:title></cc:Work></rdf:RDF></metadata><defs
   id="defs460" /><sodipodi:namedview
   inkscape:document-rotation="0"
   pagecolor="#ffffff"
   bordercolor="#666666"
   borderopacity="1"
   objecttolerance="10"
   gridtolerance="10"
   guidetolerance="10"
   inkscape:pageopacity="0"
   inkscape:pageshadow="2"
   inkscape:window-width="1824"
   inkscape:window-height="1339"
   id="namedview458"
   showgrid="false"
   inkscape:zoom="2.3115679"
   inkscape:cx="248.10001"
   inkscape:cy="248.10001"
   inkscape:window-x="60"
   inkscape:window-y="48"
   inkscape:window-maximized="0"
   inkscape:current-layer="Layer_1" />
<path
   style="fill:#ffefd6;fill-opacity:0"
   d="M0,248.1C0,111.1,111.1,0,248.1,0s248.1,111.1,248.1,248.1S385.1,496.2,248.1,496.2S0,385.1,0,248.1z  "
   id="path379" />
<g
   transform="matrix(-1,0,0,1,496.14237,0)"
   id="g387">
	<path
   style="fill:#e2a379"
   d="m 231.7,80.9 c -3.8,0 -1.8,15.8 -2.8,20.6 l 2.6,5.7 c -2.3,34.7 3.9,49.8 3.9,49.8 -2.3,20.7 -4.8,60.6 -3.4,68.4 1.3,7.8 17.3,6.9 17.9,-1.1 0.6,-7.9 0.3,-15 0.2,-22.9 0,-7.9 -1.2,-37.4 -1.9,-44.3 -0.1,-0.9 -8.2,-49.9 -8.2,-49.9 0,0 0.1,-2 1.2,-5.3 1.6,-4.6 1.2,-11.5 -0.5,-15.2 -1.5,-3.2 -5.3,-5.8 -9,-5.8 z"
   id="path381" />
	<path
   style="fill:#e2a379"
   d="m 230.4,96.7 c 0,0 0.4,-5 -2.2,-5.5 -2.2,-0.4 -3,-0.3 0.6,10.3 0,0 1.5,-0.1 1.6,-4.8 z"
   id="path383" />
	<path
   style="fill:#e2a379"
   d="m 60,331.7 c 4.1,-2.5 15,-4.9 19.8,-8.8 2.8,-2.3 8.4,-6.5 11.9,-6.6 5.8,-0.2 8.4,3 10,3.2 10,1.4 36.5,-7.1 42.5,-7.3 9.9,-0.3 7.4,18.8 3.8,18.9 -29.3,1.1 -44.1,0.6 -49.3,0.3 0,0 -30.2,4.7 -34,4.7 -2.2,0.2 -8.2,-2.2 -4.7,-4.4 z"
   id="path385" />
</g>
<path
   style="fill:#333333"
   d="m 319.64237,311.6 c 11.5,-0.6 22.5,-0.4 32.4,0.6 -1.5,3.2 -2.8,16.1 -2.1,19.1 -3.6,0 -31.5,2.1 -31.5,2.1 -8.8,0.4 -60.8,3.7 -76.7,0.3 -4.1,-0.7 -7.7,-1.8 -10.7,-2.8 -5.7,-2 15,-28.8 15,-28.8 15.4,0.2 42.3,7.1 50.2,8.7 8,1.7 23.4,0.8 23.4,0.8 z"
   id="path389" />
<path
   style="fill:#3d3c3c"
   d="m 267.64237,297 c 0,0 3.9,7.7 5.3,14.3 2.3,10.7 -2.7,17.1 -7.2,20.3 -6.3,4.7 -30.1,6.1 -30.1,-0.5 0,-13.6 -4,-20.6 -5.2,-27.1 -0.8,-4.4 19.8,-10.5 19.8,-10.5 z"
   id="path391" />
<path
   style="fill:#b3233b"
   d="m 229.04237,230.4 c -0.4,-12.3 9.8,-15.4 16.5,-28.5 0.8,-1.6 8.4,-6.1 12.4,-6.2 4.4,-0.1 8.9,0.6 12.3,4.2 2.6,2.8 7.8,11.5 3.5,34.5 -1.3,10.7 -12,50.7 -6.2,62.6 0,0 -13.7,-1.3 -21.7,0.7 -8,2 -15.3,6.3 -15.3,6.3 -2.8,-37.3 4.7,-52.4 2.9,-64.7 0,0.1 -4.3,-5.4 -4.4,-8.9 z"
   id="path393" />
<path
   style="fill:#e2a379"
   d="m 248.64237,196.6 c 0,0 3.2,-8.9 5.2,-16.9 l 13.4,-0.9 c -2.6,8 -0.7,18.8 -0.7,18.8 -12.5,-1.3 -17.7,3 -21,4.3 z"
   id="path395" />
<path
   style="fill:#f4b382"
   d="m 258.24237,151.8 c 1.3,-6.2 6.8,-7.8 10.1,-8.4 10.4,-1.9 15.1,2 20.1,7.8 6.7,7.7 -11,28.1 -15,30.4 -10.4,5.9 -24.4,-3.3 -28.9,-8.2 -4.9,-5.4 -1.8,-5.6 0.5,-7.4 0.1,-0.1 0.2,-0.6 0.2,-0.6 0.7,-0.7 1.8,-1.5 2.4,-2.9 0,0 0.9,-0.4 1.2,-0.7 0.3,-0.2 0.4,-0.3 0.2,-0.7 -0.4,-1.1 -0.8,-2 -0.8,-2.6 0.2,-1.9 9.4,-3.8 10,-6.7 z"
   id="path397" />
<path
   style="fill:#d6876b"
   d="m 249.44237,166.7 c 0,0 -0.8,-0.3 -3,-2.7 -0.1,-0.4 -0.3,-1.3 0.8,-1.4 0.9,-0.1 0.9,2.1 2.2,4.1 z"
   id="path399" />
<path
   style="fill:#cc785e"
   d="m 249.44237,166.7 c 0,0 -1.7,0.6 -4.3,-1.2 -0.3,-0.4 -0.2,-0.9 -0.1,-1 0.5,-0.9 1.4,-0.5 1.4,-0.5 2.2,2.4 3,2.7 3,2.7 z"
   id="path401" />
<path
   style="fill:#602f0f"
   d="m 290.24237,150.6 c 8.1,9.4 5.5,33.5 -21.5,34.6 -1.8,0.1 -4.8,-0.8 -5.1,-5.6 -0.2,-3.4 0.6,-6.6 0.6,-6.6 0.3,-0.9 0.5,-2 0.9,-3.1 0.4,-1.2 5.5,-4.6 4.8,-5.7 -6.5,-10.4 -5,-18.6 -2.6,-20.7 6.8,-3.9 14.2,-2.8 22.9,7.1 z"
   id="path403" />
<path
   style="fill:#f4b382"
   d="m 268.24237,172.3 c -5.4,2.2 -7.1,0.6 -9,-2 l 7.7,-4.2 3.7,-1 c 1.9,2.6 3,5 -2.4,7.2 z"
   id="path405" />
<path
   style="fill:#4c230c"
   d="m 288.64237,177.7 c 3.8,0.6 7.4,-4.4 8.1,-11 0.7,-6.6 -1.7,-12.5 -5.5,-13.1 -3.8,-0.6 -6.1,3.7 -6.8,10.3 -0.7,6.7 0.5,13.2 4.2,13.8 z"
   id="path407" />
<g
   transform="matrix(-1,0,0,1,496.14237,0)"
   id="g413">
	<path
   style="fill:#602f0f"
   d="m 228.1,164.2 c -0.9,-0.5 -1.6,-1.1 -2.1,-1.6 -0.8,-0.7 -1.2,-1.3 -1.2,-1.3 l -1.4,3.6 c 0.4,0.4 0.8,0.7 1.2,1.1 0,0 0.2,-0.4 0.4,-1 v 0.1 c 0.9,0.2 2.3,0.5 4,1.3 0.1,-0.1 1.8,-0.5 -0.9,-2.2 z"
   id="path409" />
	<path
   style="fill:#602f0f"
   d="m 205.9,179 c -4,0.6 -7.8,-4.8 -8.6,-12.1 -0.8,-7.3 1.8,-13.7 5.7,-14.3 4,-0.6 6.4,4.1 7.2,11.3 0.8,7.3 -0.4,14.5 -4.3,15.1 z"
   id="path411" />
</g>
<path
   style="fill:#4c230c"
   d="m 297.24237,170.2 c 0.4,0.1 1,-1.7 1.2,-3.9 0.2,-2.2 0.1,-4.1 -0.4,-4.1 -0.4,-0.1 -0.8,1.4 -1.1,3.6 -0.3,2.2 -0.1,4.3 0.3,4.4 z"
   id="path415" />
<path
   style="fill:#f4b382"
   d="m 60.142365,323.3 c 4.3,2.1 15.4,3.5 20.6,6.9 3,2 9,5.7 12.5,5.5 5.8,-0.3 8.100005,-3.8 9.700005,-4.1 9.8,-2.3 37,3.7 43,3.4 9.9,-0.6 5.7,-19.4 2.1,-19.2 -29.3,1.5 -44,3.4 -49.100005,4.2 0,0 -30.5,-2 -34.3,-1.6 -2.5,0.2 -8.2,3.1 -4.5,4.9 z"
   id="path417" />
<path
   style="fill:#3d3c3c"
   d="m 177.94237,332.7 c -11.4,1.7 -22.4,2.4 -32.3,2.3 1.2,-3.3 1.3,-16.2 0.4,-19.2 3.6,-0.3 31.2,-4.9 31.2,-4.9 8.8,-1.3 60.2,-9.3 76.3,-7.3 4.2,0.4 7.8,1 10.9,1.8 5.9,1.5 -12.3,30 -12.3,30 -15.3,1.2 -42.7,-3.2 -50.8,-4.1 -8.1,-0.9 -23.4,1.4 -23.4,1.4 z"
   id="path419" />
<g
   transform="matrix(-1,0,0,1,496.14237,0)"
   id="g425">
	<path
   style="fill:#f4b382"
   d="m 226.2,75.9 c -3.8,0 -1.8,15.8 -2.8,20.6 l 2.6,5.7 c -2.3,34.7 3.9,49.8 3.9,49.8 -2.3,20.7 -4.8,60.6 -3.4,68.4 1.3,7.8 17.3,6.9 17.9,-1.1 0.6,-7.9 0.3,-15 0.2,-22.9 0,-7.9 -1.2,-37.4 -1.9,-44.3 -0.1,-0.9 -8.2,-49.9 -8.2,-49.9 0,0 0.1,-2 1.2,-5.3 1.6,-4.6 1.2,-11.5 -0.5,-15.2 -1.5,-3.2 -5.3,-5.8 -9,-5.8 z"
   id="path421" />
	<path
   style="fill:#f4b382"
   d="m 224.9,91.7 c 0,0 0.4,-5 -2.2,-5.5 -2.2,-0.4 -3,-0.3 0.6,10.3 0,0 1.5,-0.1 1.6,-4.8 z"
   id="path423" />
</g>
<g
   id="g427">
</g>
<g
   id="g429">
</g>
<g
   id="g431">
</g>
<g
   id="g433">
</g>
<g
   id="g435">
</g>
<g
   id="g437">
</g>
<g
   id="g439">
</g>
<g
   id="g441">
</g>
<g
   id="g443">
</g>
<g
   id="g445">
</g>
<g
   id="g447">
</g>
<g
   id="g449">
</g>
<g
   id="g451">
</g>
<g
   id="g453">
</g>
<g
   id="g455">
</g>
</svg>
